<?xml version="1.0" encoding="UTF-8"?>
<svg xmlns="http://www.w3.org/2000/svg" xmlns:xlink="http://www.w3.org/1999/xlink" version="1.2" >
<font id="Falco Black Outline">
<font-face  font-family="Falco Black Outline" units-per-em="1000" ascent="750" descent="-250" font-style="normal" font-weight="900" font-stretch="normal" cap-height="700" x-height="500" underline-position="-75" underline-thickness="50" />
<missing-glyph  horiz-adv-x="208" d="" />
<glyph glyph-name="NULL" d="" />
<glyph glyph-name="CR" unicode="&#xd;" horiz-adv-x="250" d="" />
<glyph glyph-name="space" unicode="&#x20;" horiz-adv-x="200" d="" />
<glyph glyph-name="exclam" unicode="&#x21;" horiz-adv-x="285" d="M232 230 L232 750 L51 750 L51 230 L232 230 Z M92 272 L92 708 L190 708 L190 272 L92 272 Z M149 0 C202 0 244 42 244 95 C244 147 202 189 149 189 C97 189 55 147 55 95 C55 42 97 0 149 0 L149 0 Z M149 149 C179 149 203 124 203 95 C203 65 179 40 149 40 C120 40 95 65 95 95 C95 124 120 149 149 149 L149 149 Z " />
<glyph glyph-name="quotedbl" unicode="&#x22;" horiz-adv-x="455" d="M142 474 L213 573 C218 578 222 584 226 591 L227 593 C236 609 240 626 240 644 C240 703 192 751 133 751 C74 751 26 703 26 644 C26 605 48 570 80 551 L25 474 L142 474 Z M104 515 L145 573 L117 580 C88 588 67 614 67 644 C67 680 97 710 133 710 C170 710 199 680 199 644 C199 633 197 623 192 614 L192 613 C189 608 186 604 182 599 L121 515 L104 515 Z M362 474 L432 573 C438 578 442 584 446 591 L447 593 C455 609 460 626 460 644 C460 703 412 751 353 751 C294 751 246 703 246 644 C246 605 267 570 300 551 L244 474 L362 474 Z M324 515 L365 573 L336 580 C307 588 287 614 287 644 C287 680 317 710 353 710 C389 710 419 680 419 644 C419 633 417 623 412 614 L411 613 C409 608 405 604 402 599 L341 515 L324 515 Z " />
<glyph glyph-name="numbersign" unicode="&#x23;" horiz-adv-x="969" d="M630 1 L672 128 L816 128 L816 343 L745 343 L765 403 L932 403 L932 619 L838 619 L883 750 L655 750 L611 619 L528 619 L572 750 L345 750 L301 619 L147 619 L147 403 L228 403 L208 343 L30 343 L30 128 L135 128 L92 1 L320 1 L362 128 L445 128 L402 1 L630 1 Z M459 42 L502 169 L333 169 L290 42 L149 42 L192 169 L71 169 L71 303 L237 303 L285 444 L188 444 L188 578 L330 578 L374 709 L516 709 L471 578 L640 578 L685 709 L826 709 L780 578 L891 578 L891 444 L736 444 L688 303 L774 303 L774 169 L643 169 L600 42 L459 42 Z M547 303 L595 444 L426 444 L378 303 L547 303 Z M435 343 L455 403 L538 403 L518 343 L435 343 Z " />
<glyph glyph-name="dollar" unicode="&#x24;" horiz-adv-x="698" d="M461 -55 L461 -4 C515 9 558 30 594 59 C644 98 674 153 679 211 C687 334 611 421 461 459 L461 529 C483 519 502 507 519 489 L538 472 L685 618 L666 637 C610 691 540 729 461 746 L461 797 L250 797 L250 749 C199 737 152 716 117 688 C68 647 38 593 34 535 C24 411 100 325 250 287 L250 216 C228 227 209 240 192 257 L174 274 L26 128 L45 109 C102 55 172 16 250 -2 L250 -55 L461 -55 Z M283 -22 L283 27 L270 29 C195 44 127 78 75 128 L174 228 C200 205 228 188 261 176 L283 167 L283 313 L271 316 C127 349 58 422 67 532 C71 581 95 627 139 661 C173 689 218 709 270 718 L283 721 L283 764 L428 764 L428 719 L441 717 C517 702 585 669 637 618 L538 518 C512 541 484 558 450 570 L428 577 L428 432 L441 429 C585 396 653 324 644 213 C640 164 617 118 574 84 C539 57 494 37 441 28 L428 25 L428 -22 L283 -22 Z M428 167 L450 175 C465 181 477 187 485 194 C492 201 503 211 505 223 C506 242 500 263 450 280 L428 288 L428 167 Z M461 238 C470 234 471 230 471 227 C470 226 469 224 465 221 C462 220 462 220 461 217 L461 238 Z M283 458 L283 579 L260 571 C246 564 235 559 225 552 C213 541 209 532 208 523 C206 507 211 482 261 465 L283 458 Z M241 519 C242 520 243 522 246 526 C248 527 249 527 250 528 L250 507 C242 512 241 517 241 519 L241 519 Z " />
<glyph glyph-name="percent" unicode="&#x25;" horiz-adv-x="784" d="M240 428 C326 428 396 498 396 584 C396 670 326 739 240 739 C154 739 85 670 85 584 C85 498 154 428 240 428 L240 428 Z M240 700 C304 700 356 648 356 584 C356 519 304 468 240 468 C176 468 123 519 123 584 C123 648 176 700 240 700 L240 700 Z M240 513 C279 513 310 545 310 584 C310 622 279 654 240 654 C202 654 170 622 170 584 C170 545 202 513 240 513 L240 513 Z M240 614 C258 614 271 601 271 584 C271 566 258 553 240 553 C223 553 210 566 210 584 C210 601 223 614 240 614 L240 614 Z M595 0 C681 0 752 70 752 156 C752 241 681 311 595 311 C510 311 439 241 439 156 C439 70 510 0 595 0 L595 0 Z M595 271 C660 271 712 220 712 156 C712 92 660 39 595 39 C531 39 479 92 479 156 C479 220 531 271 595 271 L595 271 Z M595 85 C634 85 665 117 665 156 C665 194 634 226 595 226 C556 226 526 194 526 156 C526 117 556 85 595 85 L595 85 Z M595 186 C612 186 627 173 627 156 C627 138 612 125 595 125 C579 125 565 138 565 156 C565 173 579 186 595 186 L595 186 Z M238 -3 L780 751 L582 751 L40 -3 L238 -3 Z M117 37 L602 713 L704 713 L218 37 L117 37 Z " />
<glyph glyph-name="ampersand" unicode="&#x26;" horiz-adv-x="769" d="M522 -1 L776 0 L634 168 L727 249 L591 404 L501 325 L471 360 C524 402 554 464 554 531 C554 653 456 750 335 750 C215 750 117 653 117 531 C117 493 128 456 147 422 C78 379 37 311 37 236 C37 104 164 0 326 0 C384 0 440 13 487 39 L522 -1 Z M335 710 C434 710 513 630 513 531 C513 470 483 414 430 381 L411 369 L497 267 L588 347 L670 252 L578 172 L690 40 L539 40 L495 90 L481 81 C437 54 383 40 326 40 C187 40 77 126 77 236 C77 301 117 362 185 398 L205 409 L191 428 C169 458 157 495 157 531 C157 630 238 710 335 710 L335 710 Z M326 164 C346 164 366 167 383 173 L413 182 L293 317 L256 294 C229 281 190 252 208 214 C227 176 257 164 326 164 L326 164 Z M285 266 L339 205 C335 205 330 204 326 204 C263 204 253 215 245 232 C243 235 251 246 275 260 L285 266 Z M335 477 C366 477 390 502 390 531 C390 562 366 586 335 586 C306 586 281 562 281 531 C281 502 306 477 335 477 L335 477 Z M335 546 C343 546 350 540 350 531 C350 524 343 518 335 518 C328 518 321 524 321 531 C321 540 328 546 335 546 L335 546 Z " />
<glyph glyph-name="quotesingle" unicode="&#x27;" horiz-adv-x="349" d="M132 472 L202 571 C208 576 212 582 216 589 L217 591 C225 607 230 624 230 642 C230 701 182 749 123 749 C64 749 16 701 16 642 C16 603 37 568 70 549 L14 472 L132 472 Z M94 513 L135 571 L106 578 C77 586 57 612 57 642 C57 678 87 708 123 708 C159 708 189 678 189 642 C189 631 187 621 182 612 L181 611 C179 606 176 602 172 597 L111 513 L94 513 Z " />
<glyph glyph-name="parenleft" unicode="&#x28;" horiz-adv-x="321" d="M128 -69 L334 -1 L323 19 C272 116 244 241 244 371 C244 504 273 631 325 728 L335 746 L138 832 L129 814 C126 805 37 609 37 371 C37 219 65 72 120 -52 L128 -69 Z M158 777 L279 726 C230 627 203 501 203 371 C203 245 230 120 275 23 L150 -19 C102 97 77 231 77 371 C77 559 137 724 158 777 L158 777 Z " />
<glyph glyph-name="parenright" unicode="&#x29;" horiz-adv-x="321" d="M232 -70 L239 -50 C242 -39 326 220 326 372 C326 598 239 805 234 814 L226 832 L28 748 L39 728 C91 630 120 505 120 372 C120 241 92 117 40 21 L29 0 L232 -70 Z M87 22 C134 123 160 245 160 372 C160 503 133 627 84 727 L204 778 C226 722 286 551 286 372 C286 249 226 46 206 -18 L87 22 Z " />
<glyph glyph-name="asterisk" unicode="&#x2a;" horiz-adv-x="403" d="M243 439 L243 503 L300 471 L352 562 L296 594 L352 627 L300 718 L243 686 L243 750 L138 750 L138 686 L82 718 L30 627 L86 594 L29 562 L82 471 L138 503 L138 439 L243 439 Z M172 472 L172 562 L94 517 L76 550 L153 594 L76 639 L94 672 L172 627 L172 717 L210 717 L210 627 L287 672 L306 639 L229 594 L306 550 L287 517 L210 562 L210 472 L172 472 Z " />
<glyph glyph-name="plus" unicode="&#x2b;" horiz-adv-x="410" d="M304 183 L304 291 L412 291 L412 463 L304 463 L304 571 L132 571 L132 463 L24 463 L24 291 L132 291 L132 183 L304 183 Z M173 224 L173 332 L65 332 L65 422 L173 422 L173 530 L263 530 L263 422 L371 422 L371 332 L263 332 L263 224 L173 224 Z " />
<glyph glyph-name="comma" unicode="&#x2c;" horiz-adv-x="226" d="M141 -69 L204 19 C209 25 213 31 217 37 C224 51 228 67 228 82 C228 135 185 178 133 178 C80 178 37 135 37 82 C37 48 56 17 85 0 L36 -69 L141 -69 Z M107 -33 L144 19 L118 25 C92 32 74 56 74 82 C74 115 100 141 133 141 C165 141 192 115 192 82 C192 73 189 63 185 55 C183 50 180 46 176 43 L122 -33 L107 -33 Z " />
<glyph glyph-name="hyphen" unicode="&#x2d;" horiz-adv-x="472" d="M444 304 L444 485 L55 485 L55 304 L444 304 Z M96 345 L96 444 L403 444 L403 345 L96 345 Z " />
<glyph glyph-name="period" unicode="&#x2e;" horiz-adv-x="255" d="M143 0 C200 0 247 47 247 105 C247 163 200 210 143 210 C85 210 38 163 38 105 C38 47 85 0 143 0 L143 0 Z M143 170 C178 170 207 141 207 105 C207 69 178 40 143 40 C107 40 78 69 78 105 C78 141 107 170 143 170 L143 170 Z " />
<glyph glyph-name="slash" unicode="&#x2f;" horiz-adv-x="533" d="M195 -2 L563 748 L376 748 L8 -2 L195 -2 Z M75 39 L402 707 L496 707 L169 39 L75 39 Z " />
<glyph glyph-name="zero" unicode="0" horiz-adv-x="676" d="M342 0 C511 0 647 168 647 375 C647 582 511 750 342 750 C175 750 38 582 38 375 C38 168 175 0 342 0 L342 0 Z M342 711 C490 711 609 561 609 375 C609 189 490 39 342 39 C196 39 77 189 77 375 C77 561 196 711 342 711 L342 711 Z M342 155 C426 155 493 253 493 375 C493 497 426 595 342 595 C260 595 193 497 193 375 C193 253 260 155 342 155 L342 155 Z M342 557 C402 557 454 472 454 375 C454 278 402 193 342 193 C283 193 231 278 231 375 C231 472 283 557 342 557 L342 557 Z " />
<glyph glyph-name="one" unicode="1" horiz-adv-x="360" d="M333 0 L333 751 L13 700 L43 510 L142 527 L142 0 L333 0 Z M180 38 L180 571 L76 555 L58 668 L295 707 L295 38 L180 38 Z " />
<glyph glyph-name="two" unicode="2" horiz-adv-x="637" d="M603 0 L603 193 L345 193 L519 354 L533 367 L532 367 C577 413 599 462 599 514 C599 575 576 630 533 672 C481 723 400 752 313 750 C224 748 145 721 89 675 L74 662 L198 514 L213 526 C234 544 274 556 318 557 C352 557 383 548 398 534 C403 529 406 523 406 516 C404 514 398 504 374 484 L360 472 L361 471 L41 178 L41 0 L603 0 Z M80 39 L80 161 L400 455 L406 461 C440 490 445 505 445 514 C445 533 438 548 425 561 C402 583 362 596 317 595 C273 594 233 584 204 567 L129 657 C177 690 242 710 314 711 C391 713 461 688 506 644 C542 609 561 564 561 514 C561 467 539 425 493 383 L245 155 L564 155 L564 39 L80 39 Z " />
<glyph glyph-name="three" unicode="3" horiz-adv-x="641" d="M300 0 C480 0 625 123 625 274 C625 379 557 472 450 518 L530 588 L530 750 L95 750 L95 557 L209 557 L152 504 L237 346 L252 350 C268 354 284 356 300 356 C371 356 432 318 432 274 C432 231 371 193 300 193 C255 193 214 208 189 234 L175 247 L38 111 L52 97 C113 36 204 0 300 0 L300 0 Z M93 111 L176 194 C208 169 253 155 300 155 C394 155 470 208 470 274 C470 341 394 394 300 394 C286 394 271 393 257 390 L200 496 L308 595 L133 595 L133 711 L491 711 L491 606 L375 504 L407 493 C516 457 586 372 586 274 C586 144 458 39 300 39 C221 39 147 65 93 111 L93 111 Z " />
<glyph glyph-name="four" unicode="4" horiz-adv-x="588" d="M507 0 L507 136 L561 136 L561 332 L507 332 L507 752 L334 752 L12 319 L12 136 L311 136 L311 0 L507 0 Z M350 39 L350 176 L51 176 L51 306 L353 712 L467 712 L467 293 L522 293 L522 176 L467 176 L467 39 L350 39 Z M350 293 L350 513 L188 293 L350 293 Z M265 332 L311 395 L311 332 L265 332 Z " />
<glyph glyph-name="five" unicode="5" horiz-adv-x="643" d="M310 0 C480 0 618 123 618 274 C618 426 480 549 310 549 C296 549 282 548 268 546 L270 557 L558 557 L558 750 L107 750 L39 354 L210 324 L228 321 L231 332 C252 347 280 356 310 356 C372 356 425 318 425 274 C425 231 372 193 310 193 C270 193 234 208 212 233 L200 248 L53 122 L66 107 C124 39 213 0 310 0 L310 0 Z M108 118 L197 194 C226 169 267 155 310 155 C394 155 464 209 464 274 C464 340 394 394 310 394 C272 394 236 383 208 364 L83 385 L139 711 L520 711 L520 595 L237 595 L220 498 L248 504 C268 508 289 510 310 510 C459 510 580 405 580 274 C580 144 459 39 310 39 C232 39 159 68 108 118 L108 118 Z " />
<glyph glyph-name="six" unicode="6" horiz-adv-x="659" d="M332 0 C500 0 637 121 637 270 C637 399 536 508 396 534 L548 750 L311 750 L78 418 L67 403 L67 403 C41 362 28 317 28 270 C28 121 164 0 332 0 L332 0 Z M120 412 L331 711 L474 711 L326 503 L361 500 C496 488 598 389 598 270 C598 142 479 39 332 39 C186 39 67 142 67 270 C67 315 81 358 109 396 L121 411 L120 412 Z M332 155 C414 155 482 207 482 270 C482 333 414 385 332 385 C251 385 183 333 183 270 C183 207 251 155 332 155 L332 155 Z M332 347 C392 347 444 311 444 270 C444 229 392 193 332 193 C273 193 221 229 221 270 C221 311 273 347 332 347 L332 347 Z " />
<glyph glyph-name="seven" unicode="7" horiz-adv-x="577" d="M265 0 L587 573 L587 752 L102 752 L102 557 L354 557 L41 0 L265 0 Z M108 39 L420 595 L140 595 L140 713 L548 713 L548 583 L242 39 L108 39 Z " />
<glyph glyph-name="eight" unicode="8" horiz-adv-x="650" d="M329 0 C491 0 622 116 622 260 C622 330 590 396 534 446 C552 475 561 508 561 542 C561 656 456 750 329 750 C201 750 96 656 96 542 C96 508 106 475 123 446 C67 396 36 330 36 260 C36 116 167 0 329 0 L329 0 Z M329 712 C436 712 524 636 524 542 C524 510 513 479 494 453 L484 437 L498 426 C553 384 584 323 584 260 C584 137 469 37 329 37 C188 37 73 137 73 260 C73 323 104 384 159 426 L174 437 L163 453 C144 479 134 510 134 542 C134 636 222 712 329 712 L329 712 Z M329 150 C406 150 472 200 472 260 C472 320 406 370 329 370 C251 370 185 320 185 260 C185 200 251 150 329 150 L329 150 Z M329 333 C385 333 435 299 435 260 C435 221 385 187 329 187 C272 187 222 221 222 260 C222 299 272 333 329 333 L329 333 Z M329 490 C374 490 405 517 405 542 C405 567 374 594 329 594 C283 594 252 567 252 542 C252 517 283 490 329 490 L329 490 Z M290 542 C293 547 306 557 329 557 C352 557 364 547 367 542 C364 538 352 528 329 528 C306 528 293 538 290 542 L290 542 Z " />
<glyph glyph-name="nine" unicode="9" horiz-adv-x="660" d="M356 0 L590 332 L601 347 L601 347 C626 389 640 434 640 480 C640 629 503 750 335 750 C167 750 31 629 31 480 C31 351 132 242 271 216 L119 0 L356 0 Z M194 39 L340 247 L307 250 C172 262 69 361 69 480 C69 608 188 711 335 711 C482 711 601 608 601 480 C601 436 586 393 559 354 L547 339 L548 338 L336 39 L194 39 Z M335 365 C417 365 485 418 485 480 C485 543 417 595 335 595 C254 595 185 543 185 480 C185 418 254 365 335 365 L335 365 Z M335 557 C394 557 446 521 446 480 C446 440 394 404 335 404 C276 404 224 440 224 480 C224 521 276 557 335 557 L335 557 Z " />
<glyph glyph-name="colon" unicode="&#x3a;" horiz-adv-x="263" d="M147 401 C206 401 254 449 254 508 C254 567 206 615 147 615 C88 615 40 567 40 508 C40 449 88 401 147 401 L147 401 Z M147 574 C184 574 213 544 213 508 C213 471 184 442 147 442 C111 442 81 471 81 508 C81 544 111 574 147 574 L147 574 Z M147 137 C206 137 254 185 254 243 C254 302 206 350 147 350 C88 350 40 302 40 243 C40 185 88 137 147 137 L147 137 Z M147 310 C184 310 213 280 213 243 C213 207 184 177 147 177 C111 177 81 207 81 243 C81 280 111 310 147 310 L147 310 Z " />
<glyph glyph-name="semicolon" unicode="&#x3b;" horiz-adv-x="249" d="M144 383 C203 383 251 431 251 490 C251 549 203 597 144 597 C85 597 37 549 37 490 C37 431 85 383 144 383 L144 383 Z M144 556 C181 556 210 526 210 490 C210 453 181 424 144 424 C108 424 78 453 78 490 C78 526 108 556 144 556 L144 556 Z M153 56 L224 154 C230 161 234 168 238 175 C247 190 251 208 251 226 C251 284 203 332 144 332 C85 332 37 284 37 226 C37 187 58 152 91 133 L35 56 L153 56 Z M115 97 L156 154 L128 162 C98 169 78 195 78 226 C78 262 108 292 144 292 C181 292 210 262 210 226 C210 214 208 204 202 194 C200 190 197 185 193 181 L132 97 L115 97 Z " />
<glyph glyph-name="less" unicode="&#x3c;" horiz-adv-x="530" d="M487 3 L487 163 L270 252 L487 340 L487 500 L4 302 L4 201 L487 3 Z M44 227 L44 276 L447 442 L447 367 L167 252 L447 136 L447 61 L44 227 Z " />
<glyph glyph-name="equal" unicode="&#x3d;" horiz-adv-x="473" d="M444 396 L444 568 L55 568 L55 396 L444 396 Z M96 437 L96 527 L403 527 L403 437 L96 437 Z M444 177 L444 356 L55 356 L55 177 L444 177 Z M96 218 L96 316 L403 316 L403 218 L96 218 Z " />
<glyph glyph-name="greater" unicode="&#x3e;" horiz-adv-x="531" d="M55 3 L538 201 L538 302 L55 500 L55 340 L272 252 L55 163 L55 3 Z M95 136 L375 252 L95 367 L95 442 L498 276 L498 227 L95 61 L95 136 Z " />
<glyph glyph-name="question" unicode="&#x3f;" horiz-adv-x="538" d="M274 1 C327 1 368 43 368 95 C368 147 327 189 274 189 C222 189 180 147 180 95 C180 43 222 1 274 1 L274 1 Z M274 150 C304 150 329 125 329 95 C329 65 304 40 274 40 C244 40 219 65 219 95 C219 125 244 150 274 150 L274 150 Z M354 240 L354 284 C354 289 354 302 404 334 C489 392 529 457 529 543 C529 615 474 752 271 752 C90 752 28 615 20 542 L18 523 L189 505 L193 521 C194 523 208 578 271 578 C340 578 354 552 354 543 C354 529 354 511 306 480 C248 440 180 381 180 284 L180 240 L354 240 Z M219 279 L219 284 C219 362 272 409 329 446 C389 487 394 517 394 543 C394 571 368 617 271 617 C208 617 175 578 161 547 L63 558 C78 620 133 712 271 712 C443 712 490 602 490 543 C490 473 455 416 381 367 C326 330 314 308 314 284 L314 279 L219 279 Z " />
<glyph glyph-name="at" unicode="&#x40;" horiz-adv-x="825" d="M422 0 C481 0 538 14 591 41 L623 58 L587 130 C592 130 597 129 603 129 C606 128 609 128 611 128 C695 128 750 192 776 253 L776 254 C789 293 796 334 796 375 C796 582 628 750 422 750 C206 750 38 585 38 375 C38 273 75 179 143 110 C213 39 312 0 422 0 L422 0 Z M422 710 C606 710 757 560 757 375 C757 338 750 302 738 267 L738 267 C719 220 675 168 611 168 C609 168 607 168 605 168 C587 169 570 174 556 182 L551 185 C535 195 524 209 515 228 L506 248 L486 236 C460 219 430 210 398 210 C307 210 233 284 233 375 C233 467 307 540 398 540 C426 540 452 533 475 520 L506 505 L506 540 L580 540 L580 281 L581 274 C584 255 594 245 610 244 L612 244 C631 244 650 262 666 294 L667 298 C676 323 680 349 680 375 C680 435 658 494 619 540 L627 540 L601 562 L580 585 L580 578 C535 613 478 634 422 634 C257 634 141 527 141 375 C141 224 257 117 422 117 C461 117 498 127 535 144 L569 75 C523 52 473 40 422 40 C222 40 77 181 77 375 C77 566 225 710 422 710 L422 710 Z M422 593 C447 593 472 589 495 580 L465 580 L465 569 C444 577 422 580 398 580 C285 580 193 488 193 375 C193 262 285 170 398 170 C430 170 461 178 489 192 C493 185 498 179 504 173 C477 163 450 157 422 157 C278 157 182 245 182 375 C182 504 280 593 422 593 L422 593 Z M620 465 C633 437 639 406 639 375 C639 353 636 332 629 311 C626 304 623 299 620 294 L620 465 Z M398 286 C447 286 486 327 486 375 C486 424 447 464 398 464 C349 464 309 424 309 375 C309 327 349 286 398 286 L398 286 Z M398 424 C425 424 447 402 447 375 C447 348 425 327 398 327 C371 327 350 348 350 375 C350 402 371 424 398 424 L398 424 Z " />
<glyph glyph-name="A" unicode="A" horiz-adv-x="723" d="M720 0 L447 751 L316 751 L21 0 L233 0 L280 118 L467 118 L510 0 L720 0 Z M537 39 L494 158 L253 158 L206 39 L79 39 L344 711 L420 711 L663 39 L537 39 Z M451 276 L378 476 L299 276 L451 276 Z M358 316 L377 365 L395 316 L358 316 Z " />
<glyph glyph-name="B" unicode="B" horiz-adv-x="702" d="M426 0 C437 0 532 2 601 70 C631 99 666 152 666 237 C666 291 652 338 624 377 C652 415 666 461 666 514 C666 608 621 664 584 694 C542 728 486 749 431 751 L55 751 L55 0 L426 0 Z M95 40 L95 711 L431 711 C509 708 626 654 626 514 C626 465 612 423 584 389 L574 377 L584 364 C612 330 626 288 626 237 C626 166 597 123 573 98 C516 41 435 40 426 40 L95 40 Z M233 158 L426 158 C436 158 456 161 473 171 C497 183 508 204 508 237 C508 270 498 291 474 303 C458 312 438 316 428 316 L214 316 L214 158 L233 158 Z M254 198 L254 277 L427 277 C432 277 445 274 455 269 C461 265 468 261 468 237 C468 213 460 209 455 206 C444 200 430 198 425 198 L254 198 Z M427 435 L428 435 C432 436 454 438 473 449 C497 462 508 482 508 514 C508 545 497 565 473 579 C454 590 432 593 428 593 L214 593 L214 435 L427 435 Z M254 474 L254 553 L425 553 C431 552 444 550 454 544 C461 540 468 536 468 514 C468 491 461 487 454 483 C444 477 431 475 425 474 L254 474 Z " />
<glyph glyph-name="C" unicode="C" horiz-adv-x="726" d="M410 0 C515 0 617 44 688 123 L701 137 L557 268 L544 253 C510 215 460 193 410 193 C310 193 228 275 228 375 C228 475 310 557 410 557 C460 557 510 535 544 497 L557 483 L701 612 L688 628 C617 705 515 750 410 750 C203 750 35 582 35 375 C35 168 203 0 410 0 L410 0 Z M410 711 C498 711 583 676 645 615 L560 537 C519 574 466 595 410 595 C289 595 190 496 190 375 C190 254 289 155 410 155 C466 155 519 176 560 213 L645 135 C583 74 498 38 410 38 C224 38 73 190 73 375 C73 561 224 711 410 711 L410 711 Z " />
<glyph glyph-name="D" unicode="D" horiz-adv-x="691" d="M289 0 L290 0 C299 0 385 4 472 48 C598 112 667 228 667 376 C667 522 598 638 475 702 C388 746 303 750 293 750 L55 750 L55 0 L289 0 Z M94 39 L94 711 L293 711 C301 711 378 708 457 668 C567 611 628 507 628 376 C628 243 566 139 455 84 C375 43 297 39 289 39 L94 39 Z M286 155 L287 155 C297 156 353 160 406 188 C477 225 512 288 512 376 C512 463 477 525 408 563 C356 591 301 596 291 596 L210 596 L210 155 L286 155 Z M249 194 L249 556 L289 556 C296 556 345 552 389 528 C447 498 473 449 473 376 C473 302 446 253 388 223 C342 199 293 195 285 194 L249 194 Z " />
<glyph glyph-name="E" unicode="E" horiz-adv-x="626" d="M585 0 L585 194 L249 194 L249 279 L454 279 L454 473 L249 473 L249 557 L585 557 L585 750 L55 750 L55 0 L585 0 Z M95 40 L95 711 L546 711 L546 596 L210 596 L210 433 L415 433 L415 318 L210 318 L210 155 L546 155 L546 40 L95 40 Z " />
<glyph glyph-name="F" unicode="F" horiz-adv-x="594" d="M253 0 L253 269 L463 269 L463 466 L253 466 L253 553 L597 553 L597 750 L55 750 L55 0 L253 0 Z M95 39 L95 711 L558 711 L558 593 L214 593 L214 427 L423 427 L423 308 L214 308 L214 39 L95 39 Z " />
<glyph glyph-name="G" unicode="G" horiz-adv-x="816" d="M412 0 C619 0 788 169 788 375 L788 473 L393 473 L393 277 L562 277 C530 227 474 196 412 196 C314 196 234 276 234 375 C234 474 314 554 412 554 C464 554 512 532 546 494 L559 480 L706 610 L693 625 C621 705 519 750 412 750 C206 750 37 582 37 375 C37 169 206 0 412 0 L412 0 Z M412 711 C502 711 587 676 649 613 L561 534 C521 572 468 593 412 593 C292 593 195 495 195 375 C195 255 292 157 412 157 C500 157 578 209 613 289 L625 316 L433 316 L433 434 L749 434 L749 375 C749 190 598 39 412 39 C228 39 76 190 76 375 C76 560 228 711 412 711 L412 711 Z " />
<glyph glyph-name="H" unicode="H" horiz-adv-x="726" d="M677 0 L677 750 L479 750 L479 470 L253 470 L253 750 L55 750 L55 0 L253 0 L253 272 L479 272 L479 0 L677 0 Z M519 40 L519 312 L213 312 L213 40 L95 40 L95 710 L213 710 L213 430 L519 430 L519 710 L637 710 L637 40 L519 40 Z " />
<glyph glyph-name="I" unicode="I" horiz-adv-x="275" d="M254 0 L254 751 L55 751 L55 0 L254 0 Z M95 40 L95 712 L214 712 L214 40 L95 40 Z " />
<glyph glyph-name="J" unicode="J" horiz-adv-x="555" d="M230 0 C343 0 412 47 449 85 C530 170 531 285 530 306 L530 751 L336 751 L336 305 L336 303 L336 301 C336 288 332 243 308 218 C292 202 266 194 230 194 C195 194 168 202 151 217 L137 230 L7 85 L22 72 C76 24 146 0 230 0 L230 0 Z M63 89 L141 176 C164 162 193 155 230 155 C278 155 312 166 336 192 C369 225 376 279 375 302 L375 304 L375 712 L491 712 L491 305 C491 286 491 185 422 111 C389 78 330 39 230 39 C163 39 107 56 63 89 L63 89 Z " />
<glyph glyph-name="K" unicode="K" horiz-adv-x="799" d="M754 0 L348 420 L661 750 L392 750 L196 544 L196 749 L5 749 L5 0 L196 0 L196 261 L213 279 L478 0 L754 0 Z M495 39 L213 336 L157 277 L157 39 L43 39 L43 710 L157 710 L157 446 L408 711 L569 711 L293 420 L662 39 L495 39 Z " />
<glyph glyph-name="L" unicode="L" horiz-adv-x="596" d="M600 0 L600 197 L252 197 L252 751 L55 751 L55 0 L600 0 Z M94 39 L94 712 L213 712 L213 158 L561 158 L561 39 L94 39 Z " />
<glyph glyph-name="M" unicode="M" horiz-adv-x="861" d="M806 0 L806 751 L646 751 L434 310 L214 751 L55 751 L55 0 L252 0 L252 232 L367 0 L503 0 L609 221 L609 0 L806 0 Z M649 39 L649 394 L478 39 L391 39 L212 400 L212 39 L94 39 L94 712 L190 712 L434 220 L671 712 L767 712 L767 39 L649 39 Z " />
<glyph glyph-name="N" unicode="N" horiz-adv-x="729" d="M682 0 L682 750 L484 750 L484 396 L217 750 L55 750 L55 0 L254 0 L254 371 L534 0 L682 0 Z M554 39 L214 489 L214 39 L95 39 L95 709 L197 709 L523 277 L523 709 L643 709 L643 39 L554 39 Z " />
<glyph glyph-name="O" unicode="O" horiz-adv-x="826" d="M412 0 C619 0 787 168 787 375 C787 582 619 751 412 751 C205 751 37 582 37 375 C37 168 205 0 412 0 L412 0 Z M412 712 C597 712 749 561 749 375 C749 190 597 38 412 38 C226 38 75 190 75 375 C75 561 226 712 412 712 L412 712 Z M412 155 C533 155 632 254 632 375 C632 496 533 595 412 595 C291 595 192 496 192 375 C192 254 291 155 412 155 L412 155 Z M412 557 C512 557 593 475 593 375 C593 275 512 194 412 194 C312 194 231 275 231 375 C231 475 312 557 412 557 L412 557 Z " />
<glyph glyph-name="P" unicode="P" horiz-adv-x="673" d="M250 0 L250 273 L433 273 L435 273 C488 275 546 295 587 328 C625 359 669 415 669 510 C669 678 529 745 434 750 L55 751 L55 0 L250 0 Z M94 39 L94 712 L432 712 C511 707 631 649 631 510 C631 369 512 314 435 312 L211 312 L211 39 L94 39 Z M432 428 L432 428 C435 429 458 431 479 442 C495 451 513 468 513 510 C513 544 501 567 473 582 C454 592 434 595 428 595 L211 596 L211 428 L432 428 Z M250 468 L250 556 L424 556 C429 555 443 553 455 546 C468 539 475 532 475 510 C475 485 467 481 460 477 C449 471 435 468 430 468 L250 468 Z " />
<glyph glyph-name="Q" unicode="Q" horiz-adv-x="842" d="M670 -15 L804 124 L734 191 C766 247 782 310 782 375 C782 582 614 750 408 750 C200 750 32 582 32 375 C32 169 200 0 408 0 C475 0 541 18 599 53 L670 -15 Z M408 711 C592 711 743 560 743 375 C743 312 726 251 694 199 L685 185 L749 123 L669 40 L604 102 L591 93 C536 58 473 39 408 39 C222 39 71 189 71 375 C71 560 222 711 408 711 L408 711 Z M408 155 C437 155 465 160 492 172 L519 183 L417 282 L497 366 L601 267 L611 293 C622 319 628 346 628 375 C628 496 528 595 408 595 C286 595 187 496 187 375 C187 253 286 155 408 155 L408 155 Z M408 556 C507 556 588 475 588 375 C588 362 587 348 584 336 L496 421 L362 281 L448 199 C435 196 421 193 408 193 C308 193 226 275 226 375 C226 475 308 556 408 556 L408 556 Z " />
<glyph glyph-name="R" unicode="R" horiz-adv-x="745" d="M728 0 L569 316 C634 358 670 427 670 510 C670 678 529 746 434 751 L55 751 L55 0 L250 0 L250 274 L373 274 L511 0 L728 0 Z M534 39 L397 312 L211 312 L211 39 L94 39 L94 712 L432 712 C513 708 630 650 630 510 C630 413 578 364 534 340 L518 331 L665 39 L534 39 Z M431 429 L432 429 C435 430 458 432 480 443 C496 452 514 468 514 510 C514 544 502 566 473 581 C454 592 433 595 428 596 L211 596 L211 429 L431 429 Z M250 468 L250 557 L424 557 C429 556 442 553 455 547 C468 540 475 532 475 510 C475 485 466 481 460 477 C449 471 435 468 430 468 L250 468 Z " />
<glyph glyph-name="S" unicode="S" horiz-adv-x="659" d="M337 0 C398 0 456 13 504 40 C573 77 618 139 624 208 C638 351 529 454 346 472 C303 476 239 496 242 524 C242 525 247 533 261 540 C285 553 321 559 356 555 C409 550 446 528 459 509 L470 493 L632 598 L622 614 C573 688 481 739 375 749 C361 750 348 751 336 751 C275 751 217 737 169 711 C99 673 55 612 49 542 C35 402 147 296 327 279 C385 274 410 259 421 248 C430 239 431 231 431 227 C430 225 426 218 411 210 C388 197 352 192 317 195 C264 200 227 223 213 242 L203 258 L41 152 L51 136 C100 62 192 12 298 2 C312 0 324 0 337 0 L337 0 Z M95 142 L194 206 C215 183 256 161 313 156 C356 152 399 159 430 176 C454 189 468 206 470 223 C471 232 470 255 447 277 C425 298 386 312 331 317 C174 332 77 422 88 539 C93 595 129 646 187 677 C230 700 281 712 336 712 C347 712 359 711 370 710 C458 702 534 665 577 609 L479 545 C457 567 417 589 359 595 C317 599 273 591 243 575 C219 561 205 545 203 528 C197 464 287 439 342 433 C501 418 596 331 585 212 C580 155 544 105 485 74 C442 51 392 39 337 39 C326 39 314 40 303 41 C215 49 139 86 95 142 L95 142 Z " />
<glyph glyph-name="T" unicode="T" horiz-adv-x="593" d="M400 0 L400 551 L576 551 L576 750 L27 750 L27 551 L203 551 L203 0 L400 0 Z M243 39 L243 591 L67 591 L67 710 L537 710 L537 591 L361 591 L361 39 L243 39 Z " />
<glyph glyph-name="U" unicode="U" horiz-adv-x="707" d="M361 0 C478 0 546 48 585 87 C667 174 668 291 667 313 L667 751 L469 751 L469 312 L469 310 L469 307 C469 294 465 248 441 223 C424 206 399 198 361 198 C296 198 274 223 263 244 C249 270 247 300 247 306 L247 751 L48 751 L48 308 C48 286 51 172 135 86 C175 47 245 0 361 0 L361 0 Z M88 711 L207 711 L207 371 L205 373 L207 305 C207 298 208 261 227 226 C253 180 296 158 361 158 C410 158 445 170 469 196 C502 230 510 285 509 309 L509 310 L509 711 L627 711 L627 312 C628 293 627 189 556 114 C523 80 463 40 361 40 C259 40 197 80 163 114 C89 190 88 296 88 308 L88 711 Z " />
<glyph glyph-name="V" unicode="V" horiz-adv-x="697" d="M425 0 L696 750 L485 750 L356 394 L233 750 L23 750 L283 0 L425 0 Z M311 39 L79 710 L205 710 L355 275 L513 710 L640 710 L397 39 L311 39 Z " />
<glyph glyph-name="W" unicode="W" horiz-adv-x="906" d="M678 0 L880 751 L675 751 L606 495 L544 751 L383 751 L311 482 L239 751 L34 751 L235 0 L387 0 L459 270 L524 0 L678 0 Z M556 40 L460 429 L356 40 L265 40 L86 711 L208 711 L311 329 L413 711 L513 711 L604 336 L706 711 L828 711 L648 40 L556 40 Z " />
<glyph glyph-name="X" unicode="X" horiz-adv-x="807" d="M801 0 L542 376 L798 750 L559 750 L422 551 L287 750 L48 750 L304 376 L45 0 L283 0 L422 203 L563 0 L801 0 Z M583 40 L422 273 L263 40 L120 40 L351 376 L123 710 L265 710 L422 481 L580 710 L723 710 L495 376 L725 40 L583 40 Z " />
<glyph glyph-name="Y" unicode="Y" horiz-adv-x="767" d="M483 0 L483 341 L788 750 L542 750 L389 545 L256 750 L22 750 L286 344 L286 0 L483 0 Z M325 40 L325 356 L95 710 L235 710 L387 476 L562 710 L709 710 L443 354 L443 40 L325 40 Z " />
<glyph glyph-name="Z" unicode="Z" horiz-adv-x="686" d="M640 0 L640 76 L638 76 L638 195 L297 195 L638 559 L638 751 L55 751 L55 557 L369 557 L55 219 L55 0 L640 0 Z M94 40 L94 203 L460 596 L94 596 L94 711 L599 711 L599 575 L207 156 L599 156 L599 40 L94 40 Z " />
<glyph glyph-name="bracketleft" unicode="&#x5b;" horiz-adv-x="295" d="M280 -156 L280 3 L223 3 L223 749 L280 749 L280 907 L55 907 L55 -156 L280 -156 Z M96 -115 L96 868 L239 868 L239 790 L182 790 L182 -36 L239 -36 L239 -115 L96 -115 Z " />
<glyph glyph-name="backslash" unicode="&#x5c;" horiz-adv-x="532" d="M561 -1 L194 748 L8 748 L375 -1 L561 -1 Z M402 41 L75 707 L168 707 L495 41 L402 41 Z " />
<glyph glyph-name="bracketright" unicode="&#x5d;" horiz-adv-x="298" d="M272 -158 L272 910 L46 910 L46 751 L101 751 L101 2 L46 2 L46 -158 L272 -158 Z M86 -116 L86 -38 L143 -38 L143 792 L86 792 L86 870 L231 870 L231 -116 L86 -116 Z " />
<glyph glyph-name="asciicircum" unicode="&#x5e;" horiz-adv-x="696" d="M700 390 L468 749 L260 749 L28 390 L262 390 L364 548 L466 390 L700 390 Z M488 429 L364 621 L240 429 L100 429 L281 709 L447 709 L627 429 L488 429 Z " />
<glyph glyph-name="underscore" unicode="&#x5f;" horiz-adv-x="498" d="M343 -118 L343 1 L55 1 L55 -118 L343 -118 Z M84 -90 L84 -28 L315 -28 L315 -90 L84 -90 Z " />
<glyph glyph-name="grave" unicode="&#x60;" horiz-adv-x="246" d="M235 448 L388 571 L270 750 L36 750 L235 448 Z M110 710 L249 710 L335 579 L244 506 L110 710 Z " />
<glyph glyph-name="a" unicode="a" horiz-adv-x="723" d="M720 0 L447 751 L316 751 L21 0 L233 0 L280 118 L467 118 L510 0 L720 0 Z M537 39 L494 158 L253 158 L206 39 L79 39 L344 711 L420 711 L663 39 L537 39 Z M451 276 L378 476 L299 276 L451 276 Z M358 316 L377 365 L395 316 L358 316 Z " />
<glyph glyph-name="b" unicode="b" horiz-adv-x="702" d="M426 0 C437 0 532 2 601 70 C631 99 666 152 666 237 C666 291 652 338 624 377 C652 415 666 461 666 514 C666 608 621 664 584 694 C542 728 486 749 431 751 L55 751 L55 0 L426 0 Z M95 40 L95 711 L431 711 C509 708 626 654 626 514 C626 465 612 423 584 389 L574 377 L584 364 C612 330 626 288 626 237 C626 166 597 123 573 98 C516 41 435 40 426 40 L95 40 Z M233 158 L426 158 C436 158 456 161 473 171 C497 183 508 204 508 237 C508 270 498 291 474 303 C458 312 438 316 428 316 L214 316 L214 158 L233 158 Z M254 198 L254 277 L427 277 C432 277 445 274 455 269 C461 265 468 261 468 237 C468 213 460 209 455 206 C444 200 430 198 425 198 L254 198 Z M427 435 L428 435 C432 436 454 438 473 449 C497 462 508 482 508 514 C508 545 497 565 473 579 C454 590 432 593 428 593 L214 593 L214 435 L427 435 Z M254 474 L254 553 L425 553 C431 552 444 550 454 544 C461 540 468 536 468 514 C468 491 461 487 454 483 C444 477 431 475 425 474 L254 474 Z " />
<glyph glyph-name="c" unicode="c" horiz-adv-x="726" d="M410 0 C515 0 617 44 688 123 L701 137 L557 268 L544 253 C510 215 460 193 410 193 C310 193 228 275 228 375 C228 475 310 557 410 557 C460 557 510 535 544 497 L557 483 L701 612 L688 628 C617 705 515 750 410 750 C203 750 35 582 35 375 C35 168 203 0 410 0 L410 0 Z M410 711 C498 711 583 676 645 615 L560 537 C519 574 466 595 410 595 C289 595 190 496 190 375 C190 254 289 155 410 155 C466 155 519 176 560 213 L645 135 C583 74 498 38 410 38 C224 38 73 190 73 375 C73 561 224 711 410 711 L410 711 Z " />
<glyph glyph-name="d" unicode="d" horiz-adv-x="691" d="M289 0 L290 0 C299 0 385 4 472 48 C598 112 667 228 667 376 C667 522 598 638 475 702 C388 746 303 750 293 750 L55 750 L55 0 L289 0 Z M94 39 L94 711 L293 711 C301 711 378 708 457 668 C567 611 628 507 628 376 C628 243 566 139 455 84 C375 43 297 39 289 39 L94 39 Z M286 155 L287 155 C297 156 353 160 406 188 C477 225 512 288 512 376 C512 463 477 525 408 563 C356 591 301 596 291 596 L210 596 L210 155 L286 155 Z M249 194 L249 556 L289 556 C296 556 345 552 389 528 C447 498 473 449 473 376 C473 302 446 253 388 223 C342 199 293 195 285 194 L249 194 Z " />
<glyph glyph-name="e" unicode="e" horiz-adv-x="626" d="M585 0 L585 194 L249 194 L249 279 L454 279 L454 473 L249 473 L249 557 L585 557 L585 750 L55 750 L55 0 L585 0 Z M95 40 L95 711 L546 711 L546 596 L210 596 L210 433 L415 433 L415 318 L210 318 L210 155 L546 155 L546 40 L95 40 Z " />
<glyph glyph-name="f" unicode="f" horiz-adv-x="594" d="M253 0 L253 269 L463 269 L463 466 L253 466 L253 553 L597 553 L597 750 L55 750 L55 0 L253 0 Z M95 39 L95 711 L558 711 L558 593 L214 593 L214 427 L423 427 L423 308 L214 308 L214 39 L95 39 Z " />
<glyph glyph-name="g" unicode="g" horiz-adv-x="816" d="M412 0 C619 0 788 169 788 375 L788 473 L393 473 L393 277 L562 277 C530 227 474 196 412 196 C314 196 234 276 234 375 C234 474 314 554 412 554 C464 554 512 532 546 494 L559 480 L706 610 L693 625 C621 705 519 750 412 750 C206 750 37 582 37 375 C37 169 206 0 412 0 L412 0 Z M412 711 C502 711 587 676 649 613 L561 534 C521 572 468 593 412 593 C292 593 195 495 195 375 C195 255 292 157 412 157 C500 157 578 209 613 289 L625 316 L433 316 L433 434 L749 434 L749 375 C749 190 598 39 412 39 C228 39 76 190 76 375 C76 560 228 711 412 711 L412 711 Z " />
<glyph glyph-name="h" unicode="h" horiz-adv-x="726" d="M677 0 L677 750 L479 750 L479 470 L253 470 L253 750 L55 750 L55 0 L253 0 L253 272 L479 272 L479 0 L677 0 Z M519 40 L519 312 L213 312 L213 40 L95 40 L95 710 L213 710 L213 430 L519 430 L519 710 L637 710 L637 40 L519 40 Z " />
<glyph glyph-name="i" unicode="i" horiz-adv-x="275" d="M254 0 L254 751 L55 751 L55 0 L254 0 Z M95 40 L95 712 L214 712 L214 40 L95 40 Z " />
<glyph glyph-name="j" unicode="j" horiz-adv-x="555" d="M230 0 C343 0 412 47 449 85 C530 170 531 285 530 306 L530 751 L336 751 L336 305 L336 303 L336 301 C336 288 332 243 308 218 C292 202 266 194 230 194 C195 194 168 202 151 217 L137 230 L7 85 L22 72 C76 24 146 0 230 0 L230 0 Z M63 89 L141 176 C164 162 193 155 230 155 C278 155 312 166 336 192 C369 225 376 279 375 302 L375 304 L375 712 L491 712 L491 305 C491 286 491 185 422 111 C389 78 330 39 230 39 C163 39 107 56 63 89 L63 89 Z " />
<glyph glyph-name="k" unicode="k" horiz-adv-x="812" d="M816 0 L410 420 L723 750 L454 750 L258 544 L258 749 L67 749 L67 0 L258 0 L258 261 L275 279 L540 0 L816 0 Z M557 39 L275 336 L219 277 L219 39 L105 39 L105 710 L219 710 L219 446 L470 711 L631 711 L355 420 L724 39 L557 39 Z " />
<glyph glyph-name="l" unicode="l" horiz-adv-x="596" d="M600 0 L600 197 L252 197 L252 751 L55 751 L55 0 L600 0 Z M94 39 L94 712 L213 712 L213 158 L561 158 L561 39 L94 39 Z " />
<glyph glyph-name="m" unicode="m" horiz-adv-x="861" d="M806 0 L806 751 L646 751 L434 310 L214 751 L55 751 L55 0 L252 0 L252 232 L367 0 L503 0 L609 221 L609 0 L806 0 Z M649 39 L649 394 L478 39 L391 39 L212 400 L212 39 L94 39 L94 712 L190 712 L434 220 L671 712 L767 712 L767 39 L649 39 Z " />
<glyph glyph-name="n" unicode="n" horiz-adv-x="729" d="M682 0 L682 750 L484 750 L484 396 L217 750 L55 750 L55 0 L254 0 L254 371 L534 0 L682 0 Z M554 39 L214 489 L214 39 L95 39 L95 709 L197 709 L523 277 L523 709 L643 709 L643 39 L554 39 Z " />
<glyph glyph-name="o" unicode="o" horiz-adv-x="826" d="M412 0 C619 0 787 168 787 375 C787 582 619 751 412 751 C205 751 37 582 37 375 C37 168 205 0 412 0 L412 0 Z M412 712 C597 712 749 561 749 375 C749 190 597 38 412 38 C226 38 75 190 75 375 C75 561 226 712 412 712 L412 712 Z M412 155 C533 155 632 254 632 375 C632 496 533 595 412 595 C291 595 192 496 192 375 C192 254 291 155 412 155 L412 155 Z M412 557 C512 557 593 475 593 375 C593 275 512 194 412 194 C312 194 231 275 231 375 C231 475 312 557 412 557 L412 557 Z " />
<glyph glyph-name="p" unicode="p" horiz-adv-x="673" d="M250 0 L250 273 L433 273 L435 273 C488 275 546 295 587 328 C625 359 669 415 669 510 C669 678 529 745 434 750 L55 751 L55 0 L250 0 Z M94 39 L94 712 L432 712 C511 707 631 649 631 510 C631 369 512 314 435 312 L211 312 L211 39 L94 39 Z M432 428 L432 428 C435 429 458 431 479 442 C495 451 513 468 513 510 C513 544 501 567 473 582 C454 592 434 595 428 595 L211 596 L211 428 L432 428 Z M250 468 L250 556 L424 556 C429 555 443 553 455 546 C468 539 475 532 475 510 C475 485 467 481 460 477 C449 471 435 468 430 468 L250 468 Z " />
<glyph glyph-name="q" unicode="q" horiz-adv-x="842" d="M670 -15 L804 124 L734 191 C766 247 782 310 782 375 C782 582 614 750 408 750 C200 750 32 582 32 375 C32 169 200 0 408 0 C475 0 541 18 599 53 L670 -15 Z M408 711 C592 711 743 560 743 375 C743 312 726 251 694 199 L685 185 L749 123 L669 40 L604 102 L591 93 C536 58 473 39 408 39 C222 39 71 189 71 375 C71 560 222 711 408 711 L408 711 Z M408 155 C437 155 465 160 492 172 L519 183 L417 282 L497 366 L601 267 L611 293 C622 319 628 346 628 375 C628 496 528 595 408 595 C286 595 187 496 187 375 C187 253 286 155 408 155 L408 155 Z M408 556 C507 556 588 475 588 375 C588 362 587 348 584 336 L496 421 L362 281 L448 199 C435 196 421 193 408 193 C308 193 226 275 226 375 C226 475 308 556 408 556 L408 556 Z " />
<glyph glyph-name="r" unicode="r" horiz-adv-x="745" d="M728 0 L569 316 C634 358 670 427 670 510 C670 678 529 746 434 751 L55 751 L55 0 L250 0 L250 274 L373 274 L511 0 L728 0 Z M534 39 L397 312 L211 312 L211 39 L94 39 L94 712 L432 712 C513 708 630 650 630 510 C630 413 578 364 534 340 L518 331 L665 39 L534 39 Z M431 429 L432 429 C435 430 458 432 480 443 C496 452 514 468 514 510 C514 544 502 566 473 581 C454 592 433 595 428 596 L211 596 L211 429 L431 429 Z M250 468 L250 557 L424 557 C429 556 442 553 455 547 C468 540 475 532 475 510 C475 485 466 481 460 477 C449 471 435 468 430 468 L250 468 Z " />
<glyph glyph-name="s" unicode="s" horiz-adv-x="659" d="M337 0 C398 0 456 13 504 40 C573 77 618 139 624 208 C638 351 529 454 346 472 C303 476 239 496 242 524 C242 525 247 533 261 540 C285 553 321 559 356 555 C409 550 446 528 459 509 L470 493 L632 598 L622 614 C573 688 481 739 375 749 C361 750 348 751 336 751 C275 751 217 737 169 711 C99 673 55 612 49 542 C35 402 147 296 327 279 C385 274 410 259 421 248 C430 239 431 231 431 227 C430 225 426 218 411 210 C388 197 352 192 317 195 C264 200 227 223 213 242 L203 258 L41 152 L51 136 C100 62 192 12 298 2 C312 0 324 0 337 0 L337 0 Z M95 142 L194 206 C215 183 256 161 313 156 C356 152 399 159 430 176 C454 189 468 206 470 223 C471 232 470 255 447 277 C425 298 386 312 331 317 C174 332 77 422 88 539 C93 595 129 646 187 677 C230 700 281 712 336 712 C347 712 359 711 370 710 C458 702 534 665 577 609 L479 545 C457 567 417 589 359 595 C317 599 273 591 243 575 C219 561 205 545 203 528 C197 464 287 439 342 433 C501 418 596 331 585 212 C580 155 544 105 485 74 C442 51 392 39 337 39 C326 39 314 40 303 41 C215 49 139 86 95 142 L95 142 Z " />
<glyph glyph-name="t" unicode="t" horiz-adv-x="593" d="M400 0 L400 551 L576 551 L576 750 L27 750 L27 551 L203 551 L203 0 L400 0 Z M243 39 L243 591 L67 591 L67 710 L537 710 L537 591 L361 591 L361 39 L243 39 Z " />
<glyph glyph-name="u" unicode="u" horiz-adv-x="707" d="M361 0 C478 0 546 48 585 87 C667 174 668 291 667 313 L667 751 L469 751 L469 312 L469 310 L469 307 C469 294 465 248 441 223 C424 206 399 198 361 198 C296 198 274 223 263 244 C249 270 247 300 247 306 L247 751 L48 751 L48 308 C48 286 51 172 135 86 C175 47 245 0 361 0 L361 0 Z M88 711 L207 711 L207 371 L205 373 L207 305 C207 298 208 261 227 226 C253 180 296 158 361 158 C410 158 445 170 469 196 C502 230 510 285 509 309 L509 310 L509 711 L627 711 L627 312 C628 293 627 189 556 114 C523 80 463 40 361 40 C259 40 197 80 163 114 C89 190 88 296 88 308 L88 711 Z " />
<glyph glyph-name="v" unicode="v" horiz-adv-x="697" d="M425 0 L696 750 L485 750 L356 394 L233 750 L23 750 L283 0 L425 0 Z M311 39 L79 710 L205 710 L355 275 L513 710 L640 710 L397 39 L311 39 Z " />
<glyph glyph-name="w" unicode="w" horiz-adv-x="906" d="M678 0 L880 751 L675 751 L606 495 L544 751 L383 751 L311 482 L239 751 L34 751 L235 0 L387 0 L459 270 L524 0 L678 0 Z M556 40 L460 429 L356 40 L265 40 L86 711 L208 711 L311 329 L413 711 L513 711 L604 336 L706 711 L828 711 L648 40 L556 40 Z " />
<glyph glyph-name="x" unicode="x" horiz-adv-x="807" d="M801 0 L542 376 L798 750 L559 750 L422 551 L287 750 L48 750 L304 376 L45 0 L283 0 L422 203 L563 0 L801 0 Z M583 40 L422 273 L263 40 L120 40 L351 376 L123 710 L265 710 L422 481 L580 710 L723 710 L495 376 L725 40 L583 40 Z " />
<glyph glyph-name="y" unicode="y" horiz-adv-x="767" d="M483 0 L483 341 L788 750 L542 750 L389 545 L256 750 L22 750 L286 344 L286 0 L483 0 Z M325 40 L325 356 L95 710 L235 710 L387 476 L562 710 L709 710 L443 354 L443 40 L325 40 Z " />
<glyph glyph-name="z" unicode="z" horiz-adv-x="686" d="M640 0 L640 76 L638 76 L638 195 L297 195 L638 559 L638 751 L55 751 L55 557 L369 557 L55 219 L55 0 L640 0 Z M94 40 L94 203 L460 596 L94 596 L94 711 L599 711 L599 575 L207 156 L599 156 L599 40 L94 40 Z " />
<glyph glyph-name="braceleft" unicode="&#x7b;" horiz-adv-x="326" d="M305 -160 L305 0 L249 0 L249 295 L249 315 L247 315 C241 348 230 380 209 409 C234 441 248 482 249 524 L249 750 L305 750 L305 910 L79 910 L79 524 C77 508 62 494 42 494 L23 494 L23 344 L23 320 L42 320 C62 320 77 307 79 289 L79 -160 L305 -160 Z M120 -119 L120 291 L120 292 C117 324 95 351 64 359 L64 456 C95 464 117 491 120 523 L120 869 L264 869 L264 791 L208 791 L208 524 C207 485 192 450 168 420 L156 409 L168 393 C192 365 207 332 208 295 L208 -41 L264 -41 L264 -119 L120 -119 Z " />
<glyph glyph-name="bar" unicode="&#x7c;" horiz-adv-x="254" d="M232 0 L232 751 L55 751 L55 0 L232 0 Z M96 40 L96 711 L191 711 L191 40 L96 40 Z " />
<glyph glyph-name="braceright" unicode="&#x7d;" horiz-adv-x="328" d="M274 -159 L274 288 C275 307 291 320 308 320 L330 320 L330 494 L308 494 C291 494 275 509 274 526 L274 910 L48 910 L48 749 L104 749 L104 523 C105 482 117 440 145 407 C124 380 111 349 107 315 L104 315 L104 0 L48 0 L48 -159 L274 -159 Z M89 -118 L89 -41 L146 -41 L146 287 L146 295 C147 331 162 366 186 393 L197 407 L186 420 C159 448 146 487 146 526 L146 792 L89 792 L89 868 L232 868 L232 526 L232 523 C235 490 258 463 289 454 L289 359 C258 351 235 323 232 290 L232 -118 L89 -118 Z " />
<glyph glyph-name="asciitilde" unicode="&#x7e;" horiz-adv-x="550" d="M396 206 C482 206 532 260 548 291 L557 309 L443 366 L434 349 C433 347 422 333 396 333 C373 333 358 344 326 371 C295 398 253 433 190 433 C77 433 32 363 27 355 L17 338 L108 282 L124 273 L135 287 C136 288 149 306 190 306 C204 306 218 296 243 274 C277 245 324 206 396 206 L396 206 Z M190 346 C153 346 129 335 116 324 L74 350 C91 368 127 393 190 393 C238 393 271 365 300 341 C330 315 356 293 396 293 C426 293 445 304 457 314 L500 292 C482 271 448 246 396 246 C339 246 302 277 269 305 C243 327 221 346 190 346 L190 346 Z " />
</font>
</svg>
