<?xml version="1.0" encoding="UTF-8"?>
<svg xmlns="http://www.w3.org/2000/svg" xmlns:xlink="http://www.w3.org/1999/xlink" version="1.2" >
<font id="Falco Black">
<font-face  font-family="Falco Black" units-per-em="1000" ascent="750" descent="-250" font-style="normal" font-weight="900" font-stretch="normal" cap-height="700" x-height="500" underline-position="-75" underline-thickness="50" />
<missing-glyph  horiz-adv-x="208" d="" />
<glyph glyph-name="NULL" d="" />
<glyph glyph-name="nonmarkingreturn" unicode="&#xd;" horiz-adv-x="208" d="" />
<glyph glyph-name="space" unicode="&#x20;" horiz-adv-x="208" d="" />
<glyph glyph-name="E" unicode="E" horiz-adv-x="626" d="M571 586 L218 586 L218 456 L433 456 L433 293 L218 293 L218 164 L571 164 L571 0 L55 0 L55 749 L571 749 L571 586 L571 586 Z " />
<glyph glyph-name="F" unicode="F" horiz-adv-x="594" d="M583 582 L222 582 L222 449 L442 449 L442 283 L222 283 L222 0 L55 0 L55 749 L583 749 L583 582 L583 582 Z " />
<glyph glyph-name="G" unicode="G" horiz-adv-x="816" d="M410 2 Q333 2 265 31.5 Q197 61 146.5 111.5 Q96 162 66.5 230 Q37 298 37 375 Q37 452 66.5 520 Q96 588 146.5 639 Q197 690 265 719.5 Q333 749 410 749 Q490 749 562.5 716.5 Q635 684 689 624 L566 515 Q536 548 495.5 566 Q455 584 410 584 Q367 584 329 567.5 Q291 551 262.5 523 Q234 495 217.5 456.5 Q201 418 201 375 Q201 332 217.5 294 Q234 256 262.5 228 Q291 200 329 183.5 Q367 167 410 167 Q475 167 526.5 202 Q578 237 602 293 L410 293 L410 458 L784 458 L784 375 Q784 298 754.5 230 Q725 162 674 111.5 Q623 61 555 31.5 Q487 2 410 2 Z " />
<glyph glyph-name="H" unicode="H" horiz-adv-x="726" d="M503 750 L671 750 L671 0 L503 0 L503 287 L223 287 L223 0 L55 0 L55 750 L223 750 L223 454 L503 454 L503 750 L503 750 Z " />
<glyph glyph-name="I" unicode="I" horiz-adv-x="275" d="M221 0 L55 0 L55 749 L221 749 L221 0 L221 0 Z " />
<glyph glyph-name="J" unicode="J" horiz-adv-x="555" d="M212 0 Q85 0 7 71 L116 192 Q148 163 212 163 Q277 163 309 195 Q321 207 328 221.5 Q335 236 338.5 250.5 Q342 265 343.5 277.5 Q345 290 345 297 L345 299 L345 300 L345 748 L507 748 L507 301 Q507 293 506 270 Q505 247 497.5 216 Q490 185 473.5 149.5 Q457 114 427 83 Q413 69 393.5 54 Q374 39 348 27 Q322 15 288 7.5 Q254 0 212 0 Z " />
<glyph glyph-name="K" unicode="K" horiz-adv-x="799" d="M630 751 L318 424 L721 0 L495 0 L205 304 L166 264 L166 0 L5 0 L5 94 L5 333 L5 514 L5 747 L5 750 L8 750 L166 750 L166 584 L166 502 L205 543 L402 751 L630 751 L630 751 Z " />
<glyph glyph-name="L" unicode="L" horiz-adv-x="596" d="M587 0 L55 0 L55 748 L221 748 L221 167 L587 167 L587 0 L587 0 Z " />
<glyph glyph-name="M" unicode="M" horiz-adv-x="861" d="M222 0 L85 0 L55 0 L55 750 L190 750 L434 258 L671 750 L806 750 L806 0 L640 0 L640 303 L494 0 L376 0 L222 313 L222 0 L222 0 Z " />
<glyph glyph-name="N" unicode="N" horiz-adv-x="729" d="M222 433 L222 0 L55 0 L55 750 L194 750 L507 335 L507 750 L674 750 L674 0 L549 0 L222 433 L222 433 Z " />
<glyph glyph-name="O" unicode="O" horiz-adv-x="826" d="M412 -1 Q335 -1 266.5 28.5 Q198 58 147 109 Q96 160 66.5 228.5 Q37 297 37 374 Q37 452 66.5 521 Q96 590 147 641 Q198 692 266.5 721.5 Q335 751 412 751 Q490 751 559 721.5 Q628 692 679 641 Q730 590 759.5 521 Q789 452 789 374 Q789 297 759.5 228.5 Q730 160 679 109 Q628 58 559 28.5 Q490 -1 412 -1 Z M412 587 Q368 587 330 570.5 Q292 554 263 525 Q234 496 217.5 457 Q201 418 201 374 Q201 330 217.5 292 Q234 254 263 225 Q292 196 330 179.5 Q368 163 412 163 Q456 163 495 179.5 Q534 196 563 225 Q592 254 608.5 292 Q625 330 625 374 Q625 418 608.5 457 Q592 496 563 525 Q534 554 495 570.5 Q456 587 412 587 Z " />
<glyph glyph-name="P" unicode="P" horiz-adv-x="673" d="M218 0 L55 0 L55 749 L431 749 Q465 747 505.5 733 Q546 719 580 691 Q614 663 637 619.5 Q660 576 660 516 Q660 455 637.5 412 Q615 369 581 341.5 Q547 314 507 301 Q467 288 433 287 L431 287 L218 287 L218 0 Z M218 451 L429 451 Q434 452 446.5 454.5 Q459 457 470 463 Q481 469 489 480 Q497 491 497 516 Q497 537 489.5 550 Q482 563 464 573 Q451 580 439 582.5 Q427 585 424 586 L218 586 L218 451 Z " />
<glyph glyph-name="Q" unicode="Q" horiz-adv-x="842" d="M689 -10 L618 59 Q573 30 521 14 Q469 -2 412 -2 Q334 -2 266 27.5 Q198 57 147 108 Q96 159 66.5 227 Q37 295 37 373 Q37 451 66.5 519.5 Q96 588 147 639 Q198 690 266 719.5 Q334 749 412 749 Q490 749 558 719.5 Q626 690 677 639 Q728 588 757.5 519.5 Q787 451 787 373 Q787 319 772.5 269 Q758 219 731 177 L802 108 L689 -10 Z M412 161 Q455 161 494 178 L394 275 L507 392 L608 294 Q616 312 620 332.5 Q624 353 624 373 Q624 417 607 455.5 Q590 494 561.5 523 Q533 552 494 568.5 Q455 585 412 585 Q368 585 329.5 568.5 Q291 552 262 523 Q233 494 216.5 455.5 Q200 417 200 373 Q200 329 216.5 290.5 Q233 252 262 223.5 Q291 195 329.5 178 Q368 161 412 161 Z " />
<glyph glyph-name="R" unicode="R" horiz-adv-x="745" d="M218 0 L55 0 L55 749 L431 748 Q465 746 505.5 732.5 Q546 719 580 691 Q614 663 637 619.5 Q660 576 660 515 Q660 477 651 446.5 Q642 416 626.5 392 Q611 368 590.5 350 Q570 332 547 319 L708 0 L525 0 L381 287 L218 287 L218 0 Z M218 450 L429 450 Q434 451 446 453.5 Q458 456 470 463 Q480 468 488 479 Q496 490 496 515 Q496 537 488.5 550 Q481 563 464 573 Q451 580 439 582.5 Q427 585 423 585 L218 585 L218 450 Z " />
<glyph glyph-name="S" unicode="S" horiz-adv-x="659" d="M338 455 Q405 449 458.5 427.5 Q512 406 547.5 373 Q583 340 600 296 Q617 252 612 200 Q607 151 577 109 Q547 67 497 40 Q460 20 418 10 Q376 0 331 0 Q321 0 311.5 0.5 Q302 1 293 2 Q213 9 148 44.5 Q83 80 48 134 L185 224 Q197 204 228.5 186.5 Q260 169 308 164 Q339 161 368 166 Q397 171 419 183 Q448 198 450 216 Q450 222 447.5 233 Q445 244 432.5 256 Q420 268 394 278 Q368 288 322 293 Q256 299 203 321 Q150 343 114 376.5 Q78 410 60.5 453.5 Q43 497 48 548 Q53 599 83 640.5 Q113 682 164 710 Q208 733 260.5 742.5 Q313 752 368 747 Q447 739 512 704 Q577 669 613 615 L476 526 Q464 545 432 562 Q400 579 352 584 Q321 587 292 582 Q263 577 241 566 Q228 558 220 549.5 Q212 541 211 533 Q209 514 222 500 Q235 486 255 477 Q275 468 298 462.5 Q321 457 338 456 L338 455 L338 455 Z " />
<glyph glyph-name="T" unicode="T" horiz-adv-x="593" d="M566 749 L566 582 L380 582 L380 0 L213 0 L213 582 L27 582 L27 749 L566 749 L566 749 Z " />
<glyph glyph-name="U" unicode="U" horiz-adv-x="707" d="M358 -1 Q314 -1 279 7 Q244 15 216.5 27.5 Q189 40 168.5 55 Q148 70 134 84 Q102 116 85 151.5 Q68 187 59.5 218.5 Q51 250 50 273.5 Q49 297 49 303 L49 749 L215 749 L215 301 Q215 289 218 277 Q220 266 223.5 252.5 Q227 239 235 226 Q240 217 248.5 206.5 Q257 196 271.5 187 Q286 178 307 172 Q328 166 358 166 Q423 166 456 200 Q468 212 475 227 Q482 242 485.5 257 Q489 272 490.5 284.5 Q492 297 492 303 L492 305 L492 307 L492 749 L659 748 L659 308 Q659 300 657.5 276 Q656 252 648.5 220 Q641 188 624.5 152.5 Q608 117 577 85 Q563 70 543.5 55 Q524 40 497 27.5 Q470 15 435.5 7 Q401 -1 358 -1 Z " />
<glyph glyph-name="V" unicode="V" horiz-adv-x="697" d="M496 750 L675 750 L402 -1 L283 -1 L23 750 L200 750 L345 332 L496 750 L496 750 Z " />
<glyph glyph-name="W" unicode="W" horiz-adv-x="906" d="M699 749 L872 749 L670 -1 L540 -1 L455 346 L362 -1 L234 -1 L34 749 L207 749 L298 406 L390 749 L528 749 L610 417 L699 749 L699 749 Z " />
<glyph glyph-name="X" unicode="X" horiz-adv-x="807" d="M45 0 L303 376 L47 750 L248 750 L403 524 L559 750 L760 750 L504 376 L763 0 L562 0 L403 230 L246 0 L45 0 L45 0 Z " />
<glyph glyph-name="Y" unicode="Y" horiz-adv-x="767" d="M542 750 L749 750 L447 346 L447 0 L282 0 L282 349 L22 750 L219 750 L369 518 L542 750 L542 750 Z " />
<glyph glyph-name="Z" unicode="Z" horiz-adv-x="686" d="M629 38 L631 38 L631 0 L55 0 L55 202 L414 587 L55 587 L55 750 L629 750 L629 577 L243 164 L629 164 L629 38 L629 38 Z " />
<glyph glyph-name="a" unicode="a" horiz-adv-x="723" d="M201 -1 L21 -1 L317 752 L426 752 L700 -1 L521 -1 L476 126 L249 126 L201 -1 Z M368 425 L315 292 L416 292 L368 425 Z " />
<glyph glyph-name="b" unicode="b" horiz-adv-x="702" d="M424 -1 L55 -1 L55 749 L430 749 Q464 748 503.5 735 Q543 722 577 694.5 Q611 667 633.5 624 Q656 581 656 520 Q656 474 643 438 Q630 402 608 376 Q630 349 643 312.5 Q656 276 656 228 Q656 166 636 127 Q616 88 593 67 Q569 42 541 28.5 Q513 15 488.5 8.5 Q464 2 446 0.5 Q428 -1 424 -1 Z M221 166 L423 166 Q428 166 440.5 168 Q453 170 465 177 Q474 182 481.5 192 Q489 202 489 228 Q489 253 482 263.5 Q475 274 465 279 Q454 285 442.5 288 Q431 291 426 291 L221 291 L221 166 Z M221 458 L424 458 Q430 459 441.5 461.5 Q453 464 464 470 Q475 477 482 487 Q489 497 489 520 Q489 543 482 553 Q475 563 464 570 Q453 576 441.5 579 Q430 582 424 582 L221 582 L221 458 Z " />
<glyph glyph-name="c" unicode="c" horiz-adv-x="726" d="M411 -2 Q333 -2 264.5 27.5 Q196 57 145 108 Q94 159 64.5 227.5 Q35 296 35 373 Q35 451 64.5 519.5 Q94 588 145 639 Q196 690 264.5 719.5 Q333 749 411 749 Q490 749 562.5 717 Q635 685 689 625 L568 516 Q537 550 496.5 568 Q456 586 411 586 Q367 586 328 569.5 Q289 553 260 524 Q231 495 214.5 456 Q198 417 198 373 Q198 329 214.5 290.5 Q231 252 260 223 Q289 194 328 177.5 Q367 161 411 161 Q456 161 496.5 179 Q537 197 568 231 L689 121 Q635 61 562.5 29.5 Q490 -2 411 -2 Z " />
<glyph glyph-name="d" unicode="d" horiz-adv-x="691" d="M280 -1 L55 -1 L55 749 L285 749 Q288 749 304.5 747.5 Q321 746 346 741 Q371 736 402.5 726.5 Q434 717 467 700 Q560 652 608.5 568.5 Q657 485 657 375 Q657 263 607.5 179.5 Q558 96 464 48 Q431 31 399.5 21.5 Q368 12 343 7 Q318 2 301 0.5 Q284 -1 281 -1 L280 -1 Z M218 163 L277 163 Q280 163 291 164 Q302 165 318 168.5 Q334 172 354 178 Q374 184 394 195 Q495 248 495 375 Q495 501 396 554 Q376 564 356.5 570 Q337 576 321 579.5 Q305 583 294.5 584.5 Q284 586 281 586 L218 586 L218 163 Z " />
<glyph glyph-name="e" unicode="e" horiz-adv-x="626" d="M571 586 L218 586 L218 456 L433 456 L433 293 L218 293 L218 164 L571 164 L571 0 L55 0 L55 749 L571 749 L571 586 L571 586 Z " />
<glyph glyph-name="f" unicode="f" horiz-adv-x="594" d="M583 582 L222 582 L222 449 L442 449 L442 283 L222 283 L222 0 L55 0 L55 749 L583 749 L583 582 L583 582 Z " />
<glyph glyph-name="g" unicode="g" horiz-adv-x="816" d="M410 2 Q333 2 265 31.5 Q197 61 146.5 111.5 Q96 162 66.5 230 Q37 298 37 375 Q37 452 66.5 520 Q96 588 146.5 639 Q197 690 265 719.5 Q333 749 410 749 Q490 749 562.5 716.5 Q635 684 689 624 L566 515 Q536 548 495.5 566 Q455 584 410 584 Q367 584 329 567.5 Q291 551 262.5 523 Q234 495 217.5 456.5 Q201 418 201 375 Q201 332 217.5 294 Q234 256 262.5 228 Q291 200 329 183.5 Q367 167 410 167 Q475 167 526.5 202 Q578 237 602 293 L410 293 L410 458 L784 458 L784 375 Q784 298 754.5 230 Q725 162 674 111.5 Q623 61 555 31.5 Q487 2 410 2 Z " />
<glyph glyph-name="h" unicode="h" horiz-adv-x="726" d="M503 750 L671 750 L671 0 L503 0 L503 287 L223 287 L223 0 L55 0 L55 750 L223 750 L223 454 L503 454 L503 750 L503 750 Z " />
<glyph glyph-name="i" unicode="i" horiz-adv-x="275" d="M221 0 L55 0 L55 749 L221 749 L221 0 L221 0 Z " />
<glyph glyph-name="j" unicode="j" horiz-adv-x="555" d="M212 0 Q85 0 7 71 L116 192 Q148 163 212 163 Q277 163 309 195 Q321 207 328 221.5 Q335 236 338.5 250.5 Q342 265 343.5 277.5 Q345 290 345 297 L345 299 L345 300 L345 748 L507 748 L507 301 Q507 293 506 270 Q505 247 497.5 216 Q490 185 473.5 149.5 Q457 114 427 83 Q413 69 393.5 54 Q374 39 348 27 Q322 15 288 7.5 Q254 0 212 0 Z " />
<glyph glyph-name="l" unicode="l" horiz-adv-x="596" d="M587 0 L55 0 L55 748 L221 748 L221 167 L587 167 L587 0 L587 0 Z " />
<glyph glyph-name="n" unicode="n" horiz-adv-x="729" d="M222 433 L222 0 L55 0 L55 750 L194 750 L507 335 L507 750 L674 750 L674 0 L549 0 L222 433 L222 433 Z " />
<glyph glyph-name="m" unicode="m" horiz-adv-x="861" d="M222 0 L85 0 L55 0 L55 750 L190 750 L434 258 L671 750 L806 750 L806 0 L640 0 L640 303 L494 0 L376 0 L222 313 L222 0 L222 0 Z " />
<glyph glyph-name="o" unicode="o" horiz-adv-x="826" d="M412 -1 Q335 -1 266.5 28.5 Q198 58 147 109 Q96 160 66.5 228.5 Q37 297 37 374 Q37 452 66.5 521 Q96 590 147 641 Q198 692 266.5 721.5 Q335 751 412 751 Q490 751 559 721.5 Q628 692 679 641 Q730 590 759.5 521 Q789 452 789 374 Q789 297 759.5 228.5 Q730 160 679 109 Q628 58 559 28.5 Q490 -1 412 -1 Z M412 587 Q368 587 330 570.5 Q292 554 263 525 Q234 496 217.5 457 Q201 418 201 374 Q201 330 217.5 292 Q234 254 263 225 Q292 196 330 179.5 Q368 163 412 163 Q456 163 495 179.5 Q534 196 563 225 Q592 254 608.5 292 Q625 330 625 374 Q625 418 608.5 457 Q592 496 563 525 Q534 554 495 570.5 Q456 587 412 587 Z " />
<glyph glyph-name="p" unicode="p" horiz-adv-x="673" d="M218 0 L55 0 L55 749 L431 749 Q465 747 505.5 733 Q546 719 580 691 Q614 663 637 619.5 Q660 576 660 516 Q660 455 637.5 412 Q615 369 581 341.5 Q547 314 507 301 Q467 288 433 287 L431 287 L218 287 L218 0 Z M218 451 L429 451 Q434 452 446.5 454.5 Q459 457 470 463 Q481 469 489 480 Q497 491 497 516 Q497 537 489.5 550 Q482 563 464 573 Q451 580 439 582.5 Q427 585 424 586 L218 586 L218 451 Z " />
<glyph glyph-name="q" unicode="q" horiz-adv-x="842" d="M689 -10 L618 59 Q573 30 521 14 Q469 -2 412 -2 Q334 -2 266 27.5 Q198 57 147 108 Q96 159 66.5 227 Q37 295 37 373 Q37 451 66.5 519.5 Q96 588 147 639 Q198 690 266 719.5 Q334 749 412 749 Q490 749 558 719.5 Q626 690 677 639 Q728 588 757.5 519.5 Q787 451 787 373 Q787 319 772.5 269 Q758 219 731 177 L802 108 L689 -10 Z M412 161 Q455 161 494 178 L394 275 L507 392 L608 294 Q616 312 620 332.5 Q624 353 624 373 Q624 417 607 455.5 Q590 494 561.5 523 Q533 552 494 568.5 Q455 585 412 585 Q368 585 329.5 568.5 Q291 552 262 523 Q233 494 216.5 455.5 Q200 417 200 373 Q200 329 216.5 290.5 Q233 252 262 223.5 Q291 195 329.5 178 Q368 161 412 161 Z " />
<glyph glyph-name="r" unicode="r" horiz-adv-x="745" d="M218 0 L55 0 L55 749 L431 748 Q465 746 505.5 732.5 Q546 719 580 691 Q614 663 637 619.5 Q660 576 660 515 Q660 477 651 446.5 Q642 416 626.5 392 Q611 368 590.5 350 Q570 332 547 319 L708 0 L525 0 L381 287 L218 287 L218 0 Z M218 450 L429 450 Q434 451 446 453.5 Q458 456 470 463 Q480 468 488 479 Q496 490 496 515 Q496 537 488.5 550 Q481 563 464 573 Q451 580 439 582.5 Q427 585 423 585 L218 585 L218 450 Z " />
<glyph glyph-name="s" unicode="s" horiz-adv-x="659" d="M338 455 Q405 449 458.5 427.5 Q512 406 547.5 373 Q583 340 600 296 Q617 252 612 200 Q607 151 577 109 Q547 67 497 40 Q460 20 418 10 Q376 0 331 0 Q321 0 311.5 0.5 Q302 1 293 2 Q213 9 148 44.5 Q83 80 48 134 L185 224 Q197 204 228.5 186.5 Q260 169 308 164 Q339 161 368 166 Q397 171 419 183 Q448 198 450 216 Q450 222 447.5 233 Q445 244 432.5 256 Q420 268 394 278 Q368 288 322 293 Q256 299 203 321 Q150 343 114 376.5 Q78 410 60.5 453.5 Q43 497 48 548 Q53 599 83 640.5 Q113 682 164 710 Q208 733 260.5 742.5 Q313 752 368 747 Q447 739 512 704 Q577 669 613 615 L476 526 Q464 545 432 562 Q400 579 352 584 Q321 587 292 582 Q263 577 241 566 Q228 558 220 549.5 Q212 541 211 533 Q209 514 222 500 Q235 486 255 477 Q275 468 298 462.5 Q321 457 338 456 L338 455 L338 455 Z " />
<glyph glyph-name="t" unicode="t" horiz-adv-x="593" d="M566 749 L566 582 L380 582 L380 0 L213 0 L213 582 L27 582 L27 749 L566 749 L566 749 Z " />
<glyph glyph-name="u" unicode="u" horiz-adv-x="707" d="M358 -1 Q314 -1 279 7 Q244 15 216.5 27.5 Q189 40 168.5 55 Q148 70 134 84 Q102 116 85 151.5 Q68 187 59.5 218.5 Q51 250 50 273.5 Q49 297 49 303 L49 749 L215 749 L215 301 Q215 289 218 277 Q220 266 223.5 252.5 Q227 239 235 226 Q240 217 248.5 206.5 Q257 196 271.5 187 Q286 178 307 172 Q328 166 358 166 Q423 166 456 200 Q468 212 475 227 Q482 242 485.5 257 Q489 272 490.5 284.5 Q492 297 492 303 L492 305 L492 307 L492 749 L659 748 L659 308 Q659 300 657.5 276 Q656 252 648.5 220 Q641 188 624.5 152.5 Q608 117 577 85 Q563 70 543.5 55 Q524 40 497 27.5 Q470 15 435.5 7 Q401 -1 358 -1 Z " />
<glyph glyph-name="v" unicode="v" horiz-adv-x="697" d="M496 750 L675 750 L402 -1 L283 -1 L23 750 L200 750 L345 332 L496 750 L496 750 Z " />
<glyph glyph-name="w" unicode="w" horiz-adv-x="906" d="M699 749 L872 749 L670 -1 L540 -1 L455 346 L362 -1 L234 -1 L34 749 L207 749 L298 406 L390 749 L528 749 L610 417 L699 749 L699 749 Z " />
<glyph glyph-name="x" unicode="x" horiz-adv-x="807" d="M45 0 L303 376 L47 750 L248 750 L403 524 L559 750 L760 750 L504 376 L763 0 L562 0 L403 230 L246 0 L45 0 L45 0 Z " />
<glyph glyph-name="y" unicode="y" horiz-adv-x="767" d="M542 750 L749 750 L447 346 L447 0 L282 0 L282 349 L22 750 L219 750 L369 518 L542 750 L542 750 Z " />
<glyph glyph-name="z" unicode="z" horiz-adv-x="686" d="M629 38 L631 38 L631 0 L55 0 L55 202 L414 587 L55 587 L55 750 L629 750 L629 577 L243 164 L629 164 L629 38 L629 38 Z " />
<glyph glyph-name="zero" unicode="0" horiz-adv-x="676" d="M338 -1 Q276 -1 221.5 28.5 Q167 58 126.5 109 Q86 160 62 228 Q38 296 38 374 Q38 451 62 519.5 Q86 588 126.5 639 Q167 690 221.5 719.5 Q276 749 338 749 Q400 749 455 719.5 Q510 690 551 639 Q592 588 615.5 519.5 Q639 451 639 374 Q639 296 615.5 228 Q592 160 551 109 Q510 58 455 28.5 Q400 -1 338 -1 Z M338 585 Q311 585 286 568 Q261 551 242.5 522.5 Q224 494 213 455.5 Q202 417 202 374 Q202 331 213 292.5 Q224 254 242.5 225 Q261 196 286 179 Q311 162 338 162 Q366 162 391 179 Q416 196 435 225 Q454 254 465 292.5 Q476 331 476 374 Q476 417 465 455.5 Q454 494 435 522.5 Q416 551 391 568 Q366 585 338 585 Z " />
<glyph glyph-name="one" unicode="1" horiz-adv-x="360" d="M306 1 L145 1 L145 558 L39 541 L13 701 L306 748 L306 1 L306 1 Z " />
<glyph glyph-name="two" unicode="2" horiz-adv-x="637" d="M592 163 L592 0 L41 0 L41 158 L385 473 Q412 496 418.5 506.5 Q425 517 425 521 Q425 541 410 556 Q396 570 369.5 578 Q343 586 312 585 Q274 584 242 575 Q210 566 190 549 L84 674 Q126 709 183.5 728 Q241 747 309 749 Q373 750 429.5 730 Q486 710 524 672 Q556 642 572 603.5 Q588 565 588 521 Q588 470 564.5 432 Q541 394 510 367 L288 163 L592 163 Z " />
<glyph glyph-name="three" unicode="3" horiz-adv-x="641" d="M405 518 Q450 503 487 478.5 Q524 454 551 421.5 Q578 389 593 350 Q608 311 608 269 Q608 213 582.5 164 Q557 115 513.5 78.5 Q470 42 411 21 Q352 0 286 0 Q214 0 149.5 25 Q85 50 38 96 L154 211 Q177 188 211.5 175.5 Q246 163 286 163 Q318 163 347 171.5 Q376 180 397.5 194.5 Q419 209 432 228 Q445 247 445 269 Q445 290 432 309.5 Q419 329 397.5 343 Q376 357 347 365.5 Q318 374 286 374 Q272 374 258 372 Q244 370 230 367 L155 506 L243 586 L90 586 L90 750 L508 750 L508 608 L405 518 L405 518 Z " />
<glyph glyph-name="four" unicode="4" horiz-adv-x="588" d="M491 309 L548 309 L548 144 L491 144 L491 1 L327 1 L327 144 L12 144 L12 309 L341 750 L491 750 L491 309 Z M327 309 L327 456 L216 309 L327 309 Z " />
<glyph glyph-name="five" unicode="5" horiz-adv-x="643" d="M302 537 Q365 537 420 516 Q475 495 516 458.5 Q557 422 581 373 Q605 324 605 269 Q605 213 581 164 Q557 115 516 78.5 Q475 42 420 21 Q365 0 302 0 Q230 0 167 27.5 Q104 55 59 106 L184 212 Q204 189 235 176 Q266 163 302 163 Q330 163 355.5 171.5 Q381 180 400.5 194.5 Q420 209 431 228 Q442 247 442 269 Q442 290 431 309.5 Q420 329 400.5 343 Q381 357 355.5 365.5 Q330 374 302 374 Q242 374 200 341 L39 368 L105 749 L542 749 L542 585 L242 585 L232 530 Q249 534 267 535.5 Q285 537 302 537 Z " />
<glyph glyph-name="six" unicode="6" horiz-adv-x="659" d="M359 526 Q416 521 465 499 Q514 477 550 442 Q586 407 607 361.5 Q628 316 628 265 Q628 210 604.5 162 Q581 114 540.5 78 Q500 42 445 21.5 Q390 1 328 1 Q266 1 211 21.5 Q156 42 115.5 78 Q75 114 51.5 162 Q28 210 28 265 Q28 304 40.5 340.5 Q53 377 76 408 L76 409 L317 749 L516 749 L359 526 Z M328 164 Q356 164 380.5 172 Q405 180 424 194 Q443 208 454 226 Q465 244 465 265 Q465 285 454 303.5 Q443 322 424 335.5 Q405 349 380.5 357 Q356 365 328 365 Q300 365 275 357 Q250 349 231.5 335.5 Q213 322 202 303.5 Q191 285 191 265 Q191 244 202 226 Q213 208 231.5 194 Q250 180 275 172 Q300 164 328 164 Z " />
<glyph glyph-name="seven" unicode="7" horiz-adv-x="577" d="M560 750 L560 587 L229 0 L41 0 L371 585 L90 585 L90 750 L560 750 L560 750 Z " />
<glyph glyph-name="eight" unicode="8" horiz-adv-x="650" d="M514 444 Q561 409 587.5 360 Q614 311 614 253 Q614 200 591 154 Q568 108 529 73.5 Q490 39 437 19 Q384 -1 324 -1 Q265 -1 212.5 19 Q160 39 121 73.5 Q82 108 59 154 Q36 200 36 253 Q36 311 62.5 360 Q89 409 135 444 Q100 493 100 551 Q100 592 117.5 628 Q135 664 165.5 691 Q196 718 237 733.5 Q278 749 324 749 Q371 749 412 733.5 Q453 718 484 691 Q515 664 532.5 628 Q550 592 550 551 Q550 494 514 444 Z M324 586 Q296 586 280 574 Q264 562 264 551 Q264 540 280 528 Q296 516 324 516 Q353 516 369.5 528 Q386 540 386 551 Q386 562 369.5 574 Q353 586 324 586 Z M324 156 Q351 156 375.5 163.5 Q400 171 418 184.5 Q436 198 446.5 215.5 Q457 233 457 253 Q457 273 446.5 290.5 Q436 308 418 321.5 Q400 335 375.5 342.5 Q351 350 324 350 Q297 350 273.5 342.5 Q250 335 232 321.5 Q214 308 203.5 290.5 Q193 273 193 253 Q193 233 203.5 215.5 Q214 198 232 184.5 Q250 171 273.5 163.5 Q297 156 324 156 Z " />
<glyph glyph-name="nine" unicode="9" horiz-adv-x="660" d="M300 223 Q244 228 195 250.5 Q146 273 109.5 308.5 Q73 344 52 389.5 Q31 435 31 486 Q31 541 54.5 589 Q78 637 119 673 Q160 709 214.5 730 Q269 751 331 751 Q394 751 449 730 Q504 709 545 673 Q586 637 609.5 589 Q633 541 633 486 Q633 446 620 409.5 Q607 373 584 342 L585 342 L344 0 L144 0 L300 223 Z M331 587 Q303 587 278 579 Q253 571 234.5 557 Q216 543 205 525 Q194 507 194 486 Q194 466 205 447.5 Q216 429 234.5 415 Q253 401 278 393 Q303 385 331 385 Q359 385 384.5 393 Q410 401 429 415 Q448 429 459 447.5 Q470 466 470 486 Q470 507 459 525 Q448 543 429 557 Q410 571 384.5 579 Q359 587 331 587 Z " />
<glyph glyph-name="exclam" unicode="&#x21;" horiz-adv-x="255" d="M200 241 L51 241 L51 750 L200 750 L200 241 Z M134 -5 Q101 -5 77.5 18.5 Q54 42 54 74 Q54 107 77.5 130 Q101 153 134 153 Q166 153 189 130 Q212 107 212 74 Q212 42 189 18.5 Q166 -5 134 -5 Z " />
<glyph glyph-name="quotedbl" unicode="&#x22;" horiz-adv-x="476" d="M137 793 Q156 793 173 786 Q190 779 202.5 766.5 Q215 754 222 737.5 Q229 721 229 702 Q229 679 218 659 Q212 648 205 640 L136 544 L64 544 L114 614 Q85 622 65.5 646 Q46 670 46 702 Q46 740 72.5 766.5 Q99 793 137 793 Z M344 793 Q382 793 408.5 766.5 Q435 740 435 702 Q435 679 424 659 Q422 654 418.5 649.5 Q415 645 411 640 L342 544 L271 544 L321 614 Q291 622 271.5 646 Q252 670 252 702 Q252 721 259 737.5 Q266 754 278.5 766.5 Q291 779 308 786 Q325 793 344 793 Z " />
<glyph glyph-name="numbersign" unicode="&#x23;" horiz-adv-x="969" d="M815 321 L815 136 L670 136 L624 2 L430 2 L475 136 L343 136 L298 2 L103 2 L149 136 L30 136 L30 321 L210 321 L246 426 L153 426 L153 611 L309 611 L355 750 L550 750 L504 611 L636 611 L683 750 L878 750 L830 611 L938 611 L938 426 L768 426 L732 321 L815 321 Z M538 321 L573 426 L441 426 L405 321 L538 321 Z " />
<glyph glyph-name="dollar" unicode="&#x24;" horiz-adv-x="698" d="M259 301 Q223 310 181.5 325.5 Q140 341 106.5 369 Q73 397 52 439 Q31 481 36 542 Q39 583 58.5 620 Q78 657 115 686 Q143 709 180 724.5 Q217 740 259 748 L259 794 L440 794 L440 745 Q568 722 656 633 L663 625 L538 499 L530 507 Q489 545 440 562 L440 450 Q477 442 518 426 Q559 410 592.5 382 Q626 354 646.5 312 Q667 270 663 210 Q660 169 640.5 131.5 Q621 94 584 65 Q556 42 519 27 Q482 12 440 4 L440 -48 L259 -48 L259 5 Q131 31 43 117 L36 124 L162 250 L169 244 Q206 207 259 190 L259 301 Z M485 221 Q485 225 485 230 Q485 235 480.5 240.5 Q476 246 467 252 Q458 258 440 264 L440 188 Q450 193 458 196.5 Q466 200 472 205 Q485 214 485 221 Z M214 528 Q213 520 218.5 509 Q224 498 259 486 L259 563 Q249 558 241 554 Q233 550 228 546 Q221 541 217.5 536 Q214 531 214 528 Z " />
<glyph glyph-name="percent" unicode="&#x25;" horiz-adv-x="784" d="M211 451 Q181 451 155 462 Q129 473 109.5 492.5 Q90 512 78.5 538 Q67 564 67 594 Q67 623 78.5 649 Q90 675 109.5 694.5 Q129 714 155 725 Q181 736 211 736 Q240 736 266 725 Q292 714 311.5 694.5 Q331 675 342.5 649 Q354 623 354 594 Q354 564 342.5 538 Q331 512 311.5 492.5 Q292 473 266 462 Q240 451 211 451 Z M211 646 Q188 646 173 631 Q158 616 158 594 Q158 571 173 556 Q188 541 211 541 Q233 541 248 556 Q263 571 263 594 Q263 616 248 631 Q233 646 211 646 Z M584 287 Q614 287 640 276 Q666 265 685.5 245.5 Q705 226 716.5 200 Q728 174 728 144 Q728 115 716.5 89 Q705 63 685.5 43.5 Q666 24 640 13 Q614 2 584 2 Q555 2 529 13 Q503 24 483.5 43.5 Q464 63 452.5 89 Q441 115 441 144 Q441 174 452.5 200 Q464 226 483.5 245.5 Q503 265 529 276 Q555 287 584 287 Z M584 92 Q606 92 622 107 Q638 122 638 144 Q638 167 622 182 Q606 197 584 197 Q563 197 547.5 182 Q532 167 532 144 Q532 122 547.5 107 Q563 92 584 92 Z M740 749 L198 -1 L40 -1 L581 749 L740 749 Z " />
<glyph glyph-name="ampersand" unicode="&#x26;" horiz-adv-x="769" d="M495 47 Q460 25 415.5 13 Q371 1 321 1 Q261 1 209.5 18.5 Q158 36 119.5 67 Q81 98 59 139.5 Q37 181 37 229 Q37 289 71 339 Q105 389 162 419 Q143 445 132.5 475.5 Q122 506 122 541 Q122 584 138.5 622.5 Q155 661 183 689 Q211 717 249 733.5 Q287 750 331 750 Q374 750 412.5 733.5 Q451 717 479.5 689 Q508 661 524.5 622.5 Q541 584 541 541 Q541 484 514 438 Q487 392 442 365 L503 292 L599 376 L715 245 L617 159 L747 0 L537 1 L495 47 Z M331 577 Q316 577 305.5 566.5 Q295 556 295 541 Q295 527 305.5 516.5 Q316 506 331 506 Q346 506 356.5 516.5 Q367 527 367 541 Q367 556 356.5 566.5 Q346 577 331 577 Z M220 210 Q231 188 252 177.5 Q273 167 318 169 Q334 170 349 174 Q364 178 375 182 L282 287 Q276 283 272 280.5 Q268 278 258 273 Q233 256 222.5 240 Q212 224 220 210 Z " />
<glyph glyph-name="quotesingle" unicode="&#x27;" horiz-adv-x="273" d="M136 753 Q155 753 172 746 Q189 739 201.5 726.5 Q214 714 221 697.5 Q228 681 228 662 Q228 639 217 619 Q214 614 211 609.5 Q208 605 203 600 L134 504 L63 504 L113 574 Q84 582 64.5 606 Q45 630 45 662 Q45 700 71.5 726.5 Q98 753 136 753 Z " />
<glyph glyph-name="parenleft" unicode="&#x28;" horiz-adv-x="321" d="M120 -56 Q80 37 58.5 146.5 Q37 256 37 372 Q37 494 60.5 607 Q84 720 129 816 L293 747 Q254 673 231 576.5 Q208 480 208 372 Q208 266 230 170 Q252 74 291 1 L126 -54 L120 -56 Z " />
<glyph glyph-name="parenright" unicode="&#x29;" horiz-adv-x="321" d="M30 4 Q68 77 90.5 172 Q113 267 113 375 Q113 483 89.5 579.5 Q66 676 28 750 L192 819 Q237 723 260.5 610 Q284 497 284 375 Q284 258 263 149 Q242 40 201 -54 L194 -51 L30 4 L30 4 Z " />
<glyph glyph-name="asterisk" unicode="&#x2a;" horiz-adv-x="403" d="M74 451 L29 529 L112 577 L29 625 L74 702 L157 654 L157 750 L246 750 L246 654 L329 702 L374 625 L291 577 L374 529 L329 451 L246 500 L246 403 L157 403 L157 500 L74 451 L74 451 Z " />
<glyph glyph-name="plus" unicode="&#x2b;" horiz-adv-x="410" d="M274 555 L274 442 L387 442 L387 305 L274 305 L274 192 L137 192 L137 305 L24 305 L24 442 L137 442 L137 555 L274 555 L274 555 Z " />
<glyph glyph-name="comma" unicode="&#x2c;" horiz-adv-x="226" d="M117 156 Q151 156 174.5 132.5 Q198 109 198 75 Q198 53 188 37 Q184 28 177 20 L115 -65 L52 -65 L97 -3 Q71 4 53.5 25 Q36 46 36 75 Q36 109 59.5 132.5 Q83 156 117 156 Z " />
<glyph glyph-name="hyphen" unicode="&#x2d;" horiz-adv-x="472" d="M55 319 L55 465 L418 465 L418 319 L55 319 L55 319 Z " />
<glyph glyph-name="period" unicode="&#x2e;" horiz-adv-x="255" d="M128 179 Q165 179 191 153 Q217 127 217 90 Q217 52 191 26 Q165 0 128 0 Q90 0 64 26 Q38 52 38 90 Q38 127 64 153 Q90 179 128 179 Z " />
<glyph glyph-name="slash" unicode="&#x2f;" horiz-adv-x="533" d="M8 -3 L377 749 L525 749 L157 -3 L8 -3 L8 -3 Z " />
<glyph glyph-name="colon" unicode="&#x3a;" horiz-adv-x="263" d="M132 589 Q151 589 167.5 582 Q184 575 196.5 562.5 Q209 550 216 533 Q223 516 223 497 Q223 459 196.5 432.5 Q170 406 132 406 Q113 406 96 413 Q79 420 66.5 432.5 Q54 445 47 461.5 Q40 478 40 497 Q40 516 47 533 Q54 550 66.5 562.5 Q79 575 96 582 Q113 589 132 589 Z M132 309 Q170 309 196.5 282.5 Q223 256 223 218 Q223 199 216 182 Q209 165 196.5 152.5 Q184 140 167.5 133 Q151 126 132 126 Q113 126 96 133 Q79 140 66.5 152.5 Q54 165 47 182 Q40 199 40 218 Q40 237 47 253.5 Q54 270 66.5 282.5 Q79 295 96 302 Q113 309 132 309 Z " />
<glyph glyph-name="semicolon" unicode="&#x3b;" horiz-adv-x="249" d="M126 606 Q145 606 161.5 599 Q178 592 190.5 579.5 Q203 567 210 550 Q217 533 217 514 Q217 476 190.5 449.5 Q164 423 126 423 Q107 423 90.5 430 Q74 437 61.5 449.5 Q49 462 42 478.5 Q35 495 35 514 Q35 533 42 550 Q49 567 61.5 579.5 Q74 592 90.5 599 Q107 606 126 606 Z M126 326 Q164 326 190.5 299.5 Q217 273 217 235 Q217 211 206 191 Q204 186 200.5 182 Q197 178 193 173 L124 77 L53 77 L103 146 Q74 154 54.5 178.5 Q35 203 35 235 Q35 254 42 270.5 Q49 287 61.5 299.5 Q74 312 90.5 319 Q107 326 126 326 Z " />
<glyph glyph-name="less" unicode="&#x3c;" horiz-adv-x="530" d="M4 280 L59 303 L477 474 L477 349 L212 240 L477 131 L477 6 L59 177 L4 200 L4 280 L4 280 Z " />
<glyph glyph-name="equal" unicode="&#x3d;" horiz-adv-x="473" d="M55 415 L55 552 L419 552 L419 415 L55 415 Z M55 186 L55 331 L419 331 L419 186 L55 186 Z " />
<glyph glyph-name="greater" unicode="&#x3e;" horiz-adv-x="531" d="M55 474 L472 303 L527 280 L527 200 L472 177 L55 6 L55 131 L320 240 L55 349 L55 474 L55 474 Z " />
<glyph glyph-name="question" unicode="&#x3f;" horiz-adv-x="538" d="M345 78 Q345 45 322 22 Q299 -1 267 -1 Q234 -1 210.5 22 Q187 45 187 78 Q187 110 210.5 133 Q234 156 267 156 Q299 156 322 133 Q345 110 345 78 Z M262 752 Q337 752 386 730.5 Q435 709 463.5 677.5 Q492 646 503 611.5 Q514 577 514 550 Q514 489 484.5 439.5 Q455 390 391 348 Q370 334 357.5 323 Q345 312 339 304 Q333 296 331 289.5 Q329 283 329 278 L329 252 L187 252 L187 278 Q187 312 198 340 Q209 368 226.5 391 Q244 414 266.5 432.5 Q289 451 312 467 Q334 482 346.5 494 Q359 506 364.5 516.5 Q370 527 371 535.5 Q372 544 372 550 Q372 559 367 569.5 Q362 580 349.5 589 Q337 598 316 604 Q295 610 262 610 Q231 610 211.5 601 Q192 592 181 579.5 Q170 567 165.5 554 Q161 541 160 532 L18 548 Q21 575 35 610 Q49 645 77.5 676.5 Q106 708 151 730 Q196 752 262 752 Z " />
<glyph glyph-name="at" unicode="&#x40;" horiz-adv-x="825" d="M413 751 Q491 751 559.5 721.5 Q628 692 679.5 640.5 Q731 589 760.5 520.5 Q790 452 790 374 Q790 315 770 253 L770 252 Q761 231 747 209.5 Q733 188 713.5 171 Q694 154 669 143.5 Q644 133 615 133 Q613 133 611 133.5 Q609 134 607 134 Q576 135 546 151 L599 46 L584 39 Q505 -1 413 -1 Q336 -1 267.5 28.5 Q199 58 148 109 Q97 160 67.5 228.5 Q38 297 38 374 Q38 452 67.5 520.5 Q97 589 148 640.5 Q199 692 267.5 721.5 Q336 751 413 751 Z M654 299 Q666 335 666 374 Q666 422 649.5 465 Q633 508 603 541 L603 276 L604 271 Q606 260 608.5 258.5 Q611 257 615 257 L616 257 Q622 257 632.5 266.5 Q643 276 654 299 Z M462 374 Q462 405 441 426 Q420 447 389 447 Q359 447 338 426 Q317 405 317 374 Q317 344 338 323 Q359 302 389 302 Q420 302 441 323 Q462 344 462 374 Z M540 155 Q509 176 494 209 Q447 179 389 179 Q348 179 312.5 194.5 Q277 210 250.5 236 Q224 262 208.5 297.5 Q193 333 193 374 Q193 415 208.5 451 Q224 487 250.5 513.5 Q277 540 312.5 555.5 Q348 571 389 571 Q439 571 482 548 L482 571 L573 571 Q540 597 499.5 612 Q459 627 413 627 Q361 627 315.5 607 Q270 587 236 552.5 Q202 518 182 472 Q162 426 162 374 Q162 322 182 276.5 Q202 231 236 196.5 Q270 162 315.5 142 Q361 122 413 122 Q474 122 528 149 L540 155 Z " />
<glyph glyph-name="bracketleft" unicode="&#x5b;" horiz-adv-x="295" d="M55 873 L193 873 L251 873 L251 747 L193 747 L193 3 L251 3 L251 -124 L193 -124 L55 -124 L55 3 L55 747 L55 873 L55 873 Z " />
<glyph glyph-name="backslash" unicode="&#x5c;" horiz-adv-x="532" d="M524 -2 L376 -2 L8 749 L157 749 L524 -2 L524 -2 Z " />
<glyph glyph-name="bracketright" unicode="&#x5d;" horiz-adv-x="298" d="M46 877 L105 877 L244 877 L244 751 L244 -2 L244 -128 L105 -128 L46 -128 L46 -2 L105 -2 L105 751 L46 751 L46 877 L46 877 Z " />
<glyph glyph-name="asciicircum" unicode="&#x5e;" horiz-adv-x="696" d="M348 596 L227 409 L28 409 L248 750 L448 750 L668 409 L468 409 L348 596 L348 596 Z " />
<glyph glyph-name="underscore" unicode="&#x5f;" horiz-adv-x="498" d="M55 -136 L55 -1 L444 -1 L444 -136 L55 -136 L55 -136 Z " />
<glyph glyph-name="grave" unicode="&#x60;" horiz-adv-x="354" d="M330 583 L198 477 L19 750 L221 750 L330 583 L330 583 Z " />
<glyph glyph-name="braceleft" unicode="&#x7b;" horiz-adv-x="326" d="M219 875 L279 875 L279 749 L219 749 L219 502 Q217 428 171 377 Q216 326 219 257 L219 0 L279 0 L279 -126 L219 -126 L83 -126 L83 0 L83 253 Q82 276 64 291.5 Q46 307 23 307 L23 309 L23 446 L23 447 Q46 447 64 463 Q82 479 83 502 L83 749 L83 875 L219 875 Z " />
<glyph glyph-name="bar" unicode="&#x7c;" horiz-adv-x="254" d="M55 -3 L55 750 L200 750 L200 -3 L55 -3 L55 -3 Z " />
<glyph glyph-name="braceright" unicode="&#x7d;" horiz-adv-x="328" d="M304 307 Q281 307 264 291.5 Q247 276 245 253 L245 0 L245 -126 L107 -126 L48 -126 L48 0 L107 0 L107 259 Q109 291 122 322 Q135 353 156 376 Q134 402 121.5 434 Q109 466 107 502 L107 749 L48 749 L48 875 L107 875 L245 875 L245 749 L245 502 Q247 479 264 463 Q281 447 304 447 L304 446 L304 309 L304 307 Z " />
<glyph glyph-name="asciitilde" unicode="&#x7e;" horiz-adv-x="550" d="M389 311 Q405 311 416.5 315 Q428 319 435 324 Q443 330 448 338 L530 297 Q525 286 513.5 272.5 Q502 259 484.5 247 Q467 235 443 226.5 Q419 218 389 218 Q363 218 342 224.5 Q321 231 303 240.5 Q285 250 269.5 262 Q254 274 241 285 Q220 303 204.5 313.5 Q189 324 172 324 Q151 324 136.5 320 Q122 316 113.5 311 Q105 306 101 301.5 Q97 297 97 297 L17 344 Q19 347 28 358.5 Q37 370 55.5 382.5 Q74 395 102.5 405.5 Q131 416 172 416 Q194 416 212 410.5 Q230 405 246 396 Q262 387 275.5 376.5 Q289 366 301 356 Q326 335 345 323 Q364 311 389 311 Z " />
<glyph glyph-name="D" unicode="D" horiz-adv-x="691" d="M280 -1 L55 -1 L55 749 L285 749 Q288 749 304.5 747.5 Q321 746 346 741 Q371 736 402.5 726.5 Q434 717 467 700 Q560 652 608.5 568.5 Q657 485 657 375 Q657 263 607.5 179.5 Q558 96 464 48 Q431 31 399.5 21.5 Q368 12 343 7 Q318 2 301 0.5 Q284 -1 281 -1 L280 -1 Z M218 163 L277 163 Q280 163 291 164 Q302 165 318 168.5 Q334 172 354 178 Q374 184 394 195 Q495 248 495 375 Q495 501 396 554 Q376 564 356.5 570 Q337 576 321 579.5 Q305 583 294.5 584.5 Q284 586 281 586 L218 586 L218 163 Z " />
<glyph glyph-name="A" unicode="A" horiz-adv-x="723" d="M201 -1 L21 -1 L317 752 L426 752 L700 -1 L521 -1 L476 126 L249 126 L201 -1 Z M368 425 L315 292 L416 292 L368 425 Z " />
<glyph glyph-name="k" unicode="k" horiz-adv-x="812" d="M692 751 L380 424 L783 0 L557 0 L267 304 L228 264 L228 0 L67 0 L67 94 L67 333 L67 514 L67 747 L67 750 L70 750 L228 750 L228 584 L228 502 L267 543 L464 751 L692 751 L692 751 Z " />
<glyph glyph-name="B" unicode="B" horiz-adv-x="702" d="M424 -1 L55 -1 L55 749 L430 749 Q464 748 503.5 735 Q543 722 577 694.5 Q611 667 633.5 624 Q656 581 656 520 Q656 474 643 438 Q630 402 608 376 Q630 349 643 312.5 Q656 276 656 228 Q656 166 636 127 Q616 88 593 67 Q569 42 541 28.5 Q513 15 488.5 8.5 Q464 2 446 0.5 Q428 -1 424 -1 Z M221 166 L423 166 Q428 166 440.5 168 Q453 170 465 177 Q474 182 481.5 192 Q489 202 489 228 Q489 253 482 263.5 Q475 274 465 279 Q454 285 442.5 288 Q431 291 426 291 L221 291 L221 166 Z M221 458 L424 458 Q430 459 441.5 461.5 Q453 464 464 470 Q475 477 482 487 Q489 497 489 520 Q489 543 482 553 Q475 563 464 570 Q453 576 441.5 579 Q430 582 424 582 L221 582 L221 458 Z " />
<glyph glyph-name="C" unicode="C" horiz-adv-x="726" d="M411 -2 Q333 -2 264.5 27.5 Q196 57 145 108 Q94 159 64.5 227.5 Q35 296 35 373 Q35 451 64.5 519.5 Q94 588 145 639 Q196 690 264.5 719.5 Q333 749 411 749 Q490 749 562.5 717 Q635 685 689 625 L568 516 Q537 550 496.5 568 Q456 586 411 586 Q367 586 328 569.5 Q289 553 260 524 Q231 495 214.5 456 Q198 417 198 373 Q198 329 214.5 290.5 Q231 252 260 223 Q289 194 328 177.5 Q367 161 411 161 Q456 161 496.5 179 Q537 197 568 231 L689 121 Q635 61 562.5 29.5 Q490 -2 411 -2 Z " />
</font>
</svg>
