<?xml version="1.0" encoding="UTF-8"?>
<svg xmlns="http://www.w3.org/2000/svg" xmlns:xlink="http://www.w3.org/1999/xlink" version="1.2" >
<font id="Falco Black Inline">
<font-face  font-family="Falco Black Inline" units-per-em="1000" ascent="750" descent="-250" font-style="normal" font-weight="900" font-stretch="normal" cap-height="700" x-height="500" underline-position="-75" underline-thickness="50" />
<missing-glyph  horiz-adv-x="208" d="" />
<glyph glyph-name="NULL" d="" />
<glyph glyph-name="CR" unicode="&#xd;" horiz-adv-x="250" d="" />
<glyph glyph-name="space" unicode="&#x20;" horiz-adv-x="200" d="" />
<glyph glyph-name="exclam" unicode="&#x21;" horiz-adv-x="285" d="M51 751 L51 235 L238 235 L238 751 L51 751 L51 751 Z M148 325 L140 325 L140 661 L148 661 L148 325 L148 325 Z M144 186 C93 186 51 144 51 92 C51 41 93 -1 144 -1 C195 -1 238 41 238 92 C238 144 195 186 144 186 L144 186 Z M144 81 C138 81 133 86 133 92 C133 99 138 104 144 104 C151 104 156 99 156 92 C156 86 151 81 144 81 L144 81 Z " />
<glyph glyph-name="quotedbl" unicode="&#x22;" horiz-adv-x="455" d="M116 748 C65 748 25 707 25 657 C25 615 54 579 93 569 L43 500 L114 500 L182 596 C187 601 192 607 195 614 L195 614 C202 627 206 641 206 657 C206 707 166 748 116 748 L116 748 Z M124 653 L124 653 C124 652 123 652 122 651 L119 647 L119 647 L113 648 C110 649 106 652 106 657 C106 662 110 666 116 666 C121 666 125 662 125 657 C125 655 124 654 124 653 L124 653 Z M345 748 C295 748 255 707 255 657 C255 615 283 579 322 569 L273 500 L344 500 L412 596 C417 601 422 607 425 614 L425 614 C432 627 436 641 436 657 C436 707 395 748 345 748 L345 748 Z M353 653 L353 652 C353 652 353 652 352 651 L349 647 L348 647 L343 648 C340 649 336 652 336 657 C336 662 340 666 345 666 C350 666 355 662 355 657 C355 655 354 654 353 653 L353 653 Z " />
<glyph glyph-name="numbersign" unicode="&#x23;" horiz-adv-x="969" d="M283 231 L604 231 L700 514 L379 514 L283 231 L283 231 Z M443 426 L576 426 L540 319 L407 319 L443 426 L443 426 Z M941 426 L941 610 L833 610 L881 750 L685 750 L638 610 L505 610 L552 750 L357 750 L310 610 L154 610 L154 426 L247 426 L212 319 L30 319 L30 135 L150 135 L104 0 L299 0 L345 135 L478 135 L433 0 L627 0 L672 135 L818 135 L818 319 L736 319 L771 426 L941 426 L941 426 Z M729 231 L729 223 L609 223 L564 90 L556 90 L602 223 L281 223 L235 90 L228 90 L274 223 L120 223 L120 231 L276 231 L372 514 L242 514 L242 521 L374 521 L422 661 L429 661 L381 521 L702 521 L750 661 L757 661 L709 521 L852 521 L852 514 L707 514 L611 231 L729 231 L729 231 Z " />
<glyph glyph-name="dollar" unicode="&#x24;" horiz-adv-x="698" d="M175 612 C141 585 133 554 131 534 C122 415 270 392 340 382 L348 381 C348 381 348 380 348 380 L348 662 C348 662 347 662 347 662 C278 662 215 643 175 612 L175 612 Z M261 489 C214 504 215 521 215 531 C215 535 222 540 228 548 C238 553 247 559 261 565 L261 489 L261 489 Z M367 366 L357 367 C357 367 357 367 357 367 L357 87 C427 87 490 104 530 136 C564 165 573 194 574 213 C584 333 437 354 367 366 L367 366 Z M490 221 C490 217 485 210 477 204 C469 199 458 192 445 187 L445 264 C492 247 491 230 490 221 L490 221 Z M445 451 L445 563 C479 551 509 534 536 510 L542 502 L670 629 L662 636 C604 695 529 734 445 750 L445 800 L261 800 L261 751 C205 740 155 718 116 689 C69 650 40 599 36 544 C24 379 163 322 261 300 L261 188 C226 200 196 218 171 243 L164 249 L37 122 L43 115 C102 56 176 18 261 2 L261 -51 L445 -51 L445 0 C501 11 552 32 590 62 C638 100 667 152 670 209 C681 371 542 428 445 451 L445 451 Z M587 213 C585 182 568 150 537 128 C495 93 431 75 360 75 C359 75 358 75 357 75 L357 12 L348 12 L348 75 C331 76 313 77 294 80 C248 86 206 100 168 124 L162 128 L170 135 L173 134 C210 112 252 98 296 92 C314 89 331 87 348 87 L348 368 C347 369 345 369 342 369 L340 369 C137 400 116 471 120 535 C122 568 139 598 169 621 C211 655 274 673 346 673 C347 673 347 673 348 673 L348 752 L357 752 L357 673 C375 673 392 671 411 668 C457 662 500 646 539 623 L543 621 L536 612 L532 614 C495 636 455 650 410 657 C391 660 374 661 357 662 L357 379 C358 379 359 379 360 379 L367 377 C569 348 591 278 587 213 L587 213 Z " />
<glyph glyph-name="percent" unicode="&#x25;" horiz-adv-x="784" d="M194 693 C143 693 101 651 101 601 C101 550 143 508 194 508 C245 508 286 550 286 601 C286 651 245 693 194 693 L194 693 Z M194 578 C182 578 172 589 172 601 C172 613 182 622 194 622 C206 622 216 613 216 601 C216 589 206 578 194 578 L194 578 Z M194 754 C109 754 40 684 40 601 C40 516 109 447 194 447 C279 447 347 516 347 601 C347 684 279 754 194 754 L194 754 Z M194 502 C140 502 95 546 95 601 C95 655 140 699 194 699 C248 699 292 655 292 601 C292 546 248 502 194 502 L194 502 Z M602 244 C552 244 510 202 510 152 C510 101 552 59 602 59 C653 59 695 101 695 152 C695 202 653 244 602 244 L602 244 Z M602 130 C590 130 581 140 581 152 C581 163 590 173 602 173 C614 173 624 163 624 152 C624 140 614 130 602 130 L602 130 Z M602 305 C517 305 449 236 449 152 C449 67 517 -2 602 -2 C687 -2 756 67 756 152 C756 236 687 305 602 305 L602 305 Z M602 53 C548 53 504 97 504 152 C504 206 548 250 602 250 C657 250 701 206 701 152 C701 97 657 53 602 53 L602 53 Z M583 750 L43 0 L209 0 L748 750 L583 750 L583 750 Z M177 63 L166 63 L615 686 L624 686 L177 63 L177 63 Z " />
<glyph glyph-name="ampersand" unicode="&#x26;" horiz-adv-x="769" d="M375 424 C432 461 453 515 453 542 C453 567 423 656 327 656 C264 656 237 620 226 599 C208 561 212 516 236 484 C256 458 281 426 309 392 C335 403 358 413 375 424 L375 424 Z M295 541 C295 561 311 577 331 577 C351 577 367 561 367 541 C367 521 351 505 331 505 C311 505 295 521 295 541 L295 541 Z M300 379 C237 351 164 320 143 270 C127 233 136 188 166 152 C199 111 266 75 355 93 C396 100 445 133 489 166 C436 227 365 309 307 381 C305 380 302 380 300 379 L300 379 Z M321 174 C252 174 231 186 216 215 C206 235 225 255 257 272 C265 277 273 282 282 287 L375 182 C360 177 342 174 321 174 L321 174 Z M616 159 L715 245 L599 376 L504 292 L443 365 C501 402 541 467 541 541 C541 657 447 750 331 750 C216 750 121 657 121 541 C121 496 136 453 162 419 C86 379 37 309 37 229 C37 100 162 0 321 0 C387 0 448 18 495 47 L537 0 L748 0 L616 159 L616 159 Z M577 76 L570 70 C570 71 539 107 495 159 C450 125 399 92 357 84 C264 66 194 104 160 147 C127 185 118 233 135 274 C158 327 232 359 297 387 C298 387 300 388 301 388 C273 422 248 453 229 479 C203 513 199 562 218 603 C238 642 277 664 327 664 C429 664 461 569 461 542 C461 513 440 456 379 417 C363 406 340 395 315 385 C374 313 443 232 496 171 C548 211 590 252 591 253 L597 247 C594 244 553 204 502 164 C545 112 576 77 577 76 L577 76 Z " />
<glyph glyph-name="quotesingle" unicode="&#x27;" horiz-adv-x="349" d="M105 752 C55 752 14 711 14 661 C14 619 43 583 82 573 L32 504 L103 504 L172 600 C177 605 181 611 185 618 L185 618 C192 631 196 645 196 661 C196 711 155 752 105 752 L105 752 Z M113 657 L113 657 C113 656 113 656 112 655 L108 651 L108 651 L103 652 C99 653 96 656 96 661 C96 666 100 670 105 670 C110 670 114 666 114 661 C114 659 114 658 113 657 L113 657 Z " />
<glyph glyph-name="parenleft" unicode="&#x28;" horiz-adv-x="321" d="M295 749 L131 820 L130 820 C70 692 37 536 37 374 C37 216 67 67 122 -58 L129 -56 L293 -1 C241 96 209 228 209 374 C209 518 244 651 295 749 L295 749 Z M179 49 L171 47 C139 146 122 258 122 374 C122 492 140 608 175 711 L184 707 C145 607 126 491 126 374 C126 259 144 147 179 49 L179 49 Z " />
<glyph glyph-name="parenright" unicode="&#x29;" horiz-adv-x="321" d="M194 820 L194 820 L28 750 C82 650 113 518 113 373 C113 229 82 97 30 -1 L197 -57 L202 -58 C256 66 286 217 286 373 C286 536 254 692 194 820 L194 820 Z M152 47 L144 49 C180 146 199 259 199 373 C199 492 178 607 140 707 L147 710 C184 608 203 493 203 373 C203 258 185 145 152 47 L152 47 Z " />
<glyph glyph-name="asterisk" unicode="&#x2a;" horiz-adv-x="403" d="M379 622 L334 701 L249 652 L249 749 L159 749 L159 652 L74 701 L29 622 L114 573 L29 525 L74 446 L159 495 L159 397 L249 397 L249 495 L334 446 L379 525 L295 573 L379 622 L379 622 Z M324 510 L319 502 L209 566 L209 438 L200 438 L200 566 L89 502 L85 510 L195 573 L85 637 L89 645 L200 581 L200 709 L209 709 L209 581 L319 645 L324 637 L213 573 L324 510 L324 510 Z " />
<glyph glyph-name="plus" unicode="&#x2b;" horiz-adv-x="410" d="M276 445 L276 558 L138 558 L138 445 L24 445 L24 307 L138 307 L138 194 L276 194 L276 307 L389 307 L389 445 L276 445 L276 445 Z M325 371 L211 371 L211 258 L202 258 L202 371 L88 371 L88 381 L202 381 L202 494 L211 494 L211 381 L325 381 L325 371 L325 371 Z " />
<glyph glyph-name="comma" unicode="&#x2c;" horiz-adv-x="226" d="M197 78 C197 122 161 158 117 158 C72 158 36 122 36 78 C36 41 62 9 97 0 L53 -61 L115 -61 L176 24 C180 29 184 34 188 40 L188 40 L188 40 C194 51 197 64 197 78 L197 78 Z M124 74 L124 74 C124 74 124 73 123 73 L120 69 L120 69 L115 70 C112 71 109 74 109 78 C109 82 112 86 117 86 C121 86 125 82 125 78 C125 77 125 75 124 74 L124 74 Z " />
<glyph glyph-name="hyphen" unicode="&#x2d;" horiz-adv-x="472" d="M55 414 L55 277 L420 277 L420 414 L55 414 L55 414 Z M356 341 L119 341 L119 350 L356 350 L356 341 L356 341 Z " />
<glyph glyph-name="period" unicode="&#x2e;" horiz-adv-x="255" d="M127 180 C78 180 38 140 38 91 C38 42 78 3 127 3 C176 3 215 42 215 91 C215 140 176 180 127 180 L127 180 Z M127 82 C122 82 118 86 118 91 C118 96 122 100 127 100 C132 100 136 96 136 91 C136 86 132 82 127 82 L127 82 Z " />
<glyph glyph-name="slash" unicode="&#x2f;" horiz-adv-x="533" d="M343 750 L8 0 L144 0 L478 750 L343 750 L343 750 Z M117 84 L109 84 L370 668 L377 668 L117 84 L117 84 Z " />
<glyph glyph-name="zero" unicode="0" horiz-adv-x="676" d="M339 665 C221 665 125 535 125 376 C125 217 221 87 339 87 C457 87 554 217 554 376 C554 535 457 665 339 665 L339 665 Z M339 163 C264 163 201 261 201 376 C201 491 264 588 339 588 C414 588 478 491 478 376 C478 261 414 163 339 163 L339 163 Z M339 752 C173 752 38 584 38 376 C38 169 173 0 339 0 C506 0 641 169 641 376 C641 584 506 752 339 752 L339 752 Z M339 77 C216 77 114 211 114 376 C114 541 216 675 339 675 C463 675 565 541 565 376 C565 211 463 77 339 77 L339 77 Z " />
<glyph glyph-name="one" unicode="1" horiz-adv-x="360" d="M13 704 L38 543 L145 560 L145 0 L308 0 L308 752 L13 704 L13 704 Z M232 76 L222 76 L222 650 L101 631 L99 641 L232 662 L232 76 L232 76 Z " />
<glyph glyph-name="two" unicode="2" horiz-adv-x="637" d="M288 163 L511 368 L511 368 C550 405 589 454 589 522 C589 580 567 633 525 674 C473 724 394 753 308 751 C219 748 139 721 85 676 L189 550 C215 572 261 585 312 586 C353 587 390 576 411 557 C421 547 425 536 425 522 C425 518 422 505 384 475 L385 474 L41 158 L41 0 L593 0 L593 163 L288 163 L288 163 Z M522 83 L70 83 L437 420 L436 420 C472 451 505 484 505 528 C505 612 426 671 312 671 C273 671 234 663 201 650 L198 657 C232 672 272 679 312 679 C431 679 513 617 513 528 C513 488 490 458 460 430 L460 430 L91 92 L522 92 L522 83 L522 83 Z " />
<glyph glyph-name="three" unicode="3" horiz-adv-x="641" d="M403 519 L507 608 L507 750 L90 750 L90 586 L241 586 L155 507 L230 368 C248 373 267 375 286 375 C372 375 444 326 444 269 C444 212 372 163 286 163 C233 163 184 181 153 212 L38 97 C99 35 190 0 286 0 C463 0 608 120 608 269 C608 383 523 480 403 519 L403 519 Z M280 83 C235 83 192 93 154 110 L158 118 C195 101 237 92 280 92 C411 92 516 174 516 274 C516 376 411 458 280 458 C255 458 229 455 205 449 L203 455 L202 456 L203 457 L203 457 C203 457 203 457 203 457 L435 670 L157 670 L157 678 L456 678 L219 460 C238 464 260 466 280 466 C415 466 524 381 524 274 C524 169 415 83 280 83 L280 83 Z " />
<glyph glyph-name="four" unicode="4" horiz-adv-x="588" d="M411 236 L411 679 L70 236 L411 236 L411 236 Z M327 309 L217 309 L327 457 L327 309 L327 309 Z M491 309 L491 751 L340 751 L12 309 L12 144 L327 144 L327 0 L491 0 L491 144 L549 144 L549 309 L491 309 L491 309 Z M481 228 L420 228 L420 85 L411 85 L411 228 L54 228 L420 703 L420 236 L481 236 L481 228 L481 228 Z " />
<glyph glyph-name="five" unicode="5" horiz-adv-x="643" d="M302 539 C278 539 255 537 233 531 L242 587 L543 587 L543 752 L104 752 L39 369 L199 342 L200 342 C227 363 263 375 302 375 C379 375 443 327 443 270 C443 212 379 163 302 163 C254 163 209 183 183 213 L59 106 C117 39 205 0 302 0 C470 0 607 121 607 270 C607 418 470 539 302 539 L302 539 Z M302 83 C260 83 221 93 186 111 L189 118 C223 100 262 92 302 92 C422 92 521 174 521 275 C521 376 422 458 302 458 C243 458 182 439 142 408 L140 412 L136 412 L177 680 L447 680 L447 671 L184 671 L145 421 C186 449 245 467 302 467 C426 467 529 381 529 275 C529 169 426 83 302 83 L302 83 Z " />
<glyph glyph-name="six" unicode="6" horiz-adv-x="659" d="M359 527 L517 751 L317 751 L77 409 L77 409 C45 368 28 318 28 265 C28 119 163 0 328 0 C494 0 629 119 629 265 C629 401 511 514 359 527 L359 527 Z M328 83 C205 83 105 167 105 271 C105 307 118 342 139 370 L139 370 L362 677 L369 672 L177 407 C217 438 270 457 328 457 C452 457 552 373 552 271 C552 167 452 83 328 83 L328 83 Z M328 449 C209 449 113 369 113 271 C113 172 209 92 328 92 C447 92 544 172 544 271 C544 369 447 449 328 449 L328 449 Z M328 163 C254 163 191 210 191 265 C191 319 254 366 328 366 C403 366 466 319 466 265 C466 210 403 163 328 163 L328 163 Z " />
<glyph glyph-name="seven" unicode="7" horiz-adv-x="577" d="M90 750 L90 585 L370 585 L41 0 L229 0 L559 587 L559 750 L90 750 L90 750 Z M184 82 L177 87 L508 670 L172 670 L172 678 L521 678 L184 82 L184 82 Z " />
<glyph glyph-name="eight" unicode="8" horiz-adv-x="650" d="M325 431 C212 431 118 354 118 259 C118 165 212 88 325 88 C439 88 533 165 533 259 C533 354 439 431 325 431 L325 431 Z M325 157 C254 157 194 201 194 254 C194 307 254 351 325 351 C397 351 457 307 457 254 C457 201 397 157 325 157 L325 157 Z M464 543 C464 600 402 646 325 646 C249 646 187 600 187 543 C187 486 249 439 325 439 C402 439 464 486 464 543 L464 543 Z M264 552 C264 566 288 587 325 587 C363 587 387 566 387 552 C387 537 363 517 325 517 C288 517 264 537 264 552 L264 552 Z M515 445 C538 476 551 513 551 552 C551 661 449 751 325 751 C202 751 100 661 100 552 C100 513 113 476 136 445 C75 399 36 331 36 254 C36 114 166 0 325 0 C485 0 615 114 615 254 C615 331 576 399 515 445 L515 445 Z M325 80 C207 80 110 161 110 259 C110 347 186 420 284 436 C223 449 179 493 179 543 C179 604 244 654 325 654 C406 654 472 604 472 543 C472 493 427 449 367 436 C465 420 540 347 540 259 C540 161 444 80 325 80 L325 80 Z " />
<glyph glyph-name="nine" unicode="9" horiz-adv-x="660" d="M330 662 C212 662 116 582 116 484 C116 384 212 305 330 305 C449 305 546 384 546 484 C546 582 449 662 330 662 L330 662 Z M330 384 C257 384 194 431 194 486 C194 540 257 586 330 586 C405 586 468 540 468 486 C468 431 405 384 330 384 L330 384 Z M631 486 C631 631 496 750 330 750 C166 750 31 631 31 486 C31 349 148 237 300 223 L143 0 L343 0 L582 341 L582 341 C614 382 631 432 631 486 L631 486 Z M520 383 L297 77 L291 82 L482 347 C443 316 389 296 330 296 C208 296 108 380 108 484 C108 586 208 670 330 670 C454 670 554 586 554 484 C554 446 541 413 519 383 L520 383 L520 383 Z " />
<glyph glyph-name="colon" unicode="&#x3a;" horiz-adv-x="263" d="M131 611 C81 611 40 571 40 521 C40 471 81 430 131 430 C181 430 222 471 222 521 C222 571 181 611 131 611 L131 611 Z M131 512 C126 512 122 516 122 521 C122 526 126 530 131 530 C136 530 140 526 140 521 C140 516 136 512 131 512 L131 512 Z M131 334 C81 334 40 293 40 243 C40 193 81 153 131 153 C181 153 222 193 222 243 C222 293 181 334 131 334 L131 334 Z M131 234 C126 234 122 238 122 243 C122 248 126 253 131 253 C136 253 140 248 140 243 C140 238 136 234 131 234 L131 234 Z " />
<glyph glyph-name="semicolon" unicode="&#x3b;" horiz-adv-x="249" d="M134 585 C84 587 41 549 38 499 C35 449 74 406 124 403 C174 401 217 439 219 489 C222 539 184 582 134 585 L134 585 Z M128 485 C123 485 119 489 120 495 C120 500 124 503 129 503 C134 503 138 499 138 494 C138 488 133 485 128 485 L128 485 Z M223 212 C225 262 187 305 137 308 C87 310 44 272 41 222 C39 180 66 143 104 131 L51 64 L122 61 L195 152 C201 158 206 163 209 170 L210 170 L210 170 C217 182 222 197 223 212 L223 212 Z M140 212 L140 212 C140 212 139 211 138 211 L135 207 L135 207 L129 208 C126 209 123 213 123 218 C123 223 127 227 132 226 C138 226 141 222 141 217 C141 215 141 214 140 212 L140 212 Z " />
<glyph glyph-name="less" unicode="&#x3c;" horiz-adv-x="530" d="M484 492 L60 317 L4 294 L4 213 L60 190 L484 16 L484 143 L215 254 L484 364 L484 492 L484 492 Z M429 401 L69 254 L429 106 L429 98 L59 250 L59 257 L429 409 L429 401 L429 401 Z " />
<glyph glyph-name="equal" unicode="&#x3d;" horiz-adv-x="473" d="M55 555 L55 417 L420 417 L420 555 L55 555 L55 555 Z M356 481 L120 481 L120 491 L356 491 L356 481 L356 481 Z M55 345 L55 208 L420 208 L420 345 L55 345 L55 345 Z M356 272 L120 272 L120 281 L356 281 L356 272 L356 272 Z " />
<glyph glyph-name="greater" unicode="&#x3e;" horiz-adv-x="531" d="M479 317 L55 492 L55 364 L324 254 L55 143 L55 16 L479 190 L535 213 L535 294 L479 317 L479 317 Z M480 250 L110 98 L110 106 L470 254 L110 401 L110 409 L480 257 L480 250 L480 250 Z " />
<glyph glyph-name="question" unicode="&#x3f;" horiz-adv-x="538" d="M277 164 C233 164 196 128 196 83 C196 37 233 0 277 0 C323 0 360 37 360 83 C360 128 323 164 277 164 L277 164 Z M277 72 C271 72 266 77 266 83 C266 89 271 93 277 93 C284 93 289 89 289 83 C289 77 284 72 277 72 L277 72 Z M273 751 C90 751 26 612 18 538 L166 523 L166 522 C170 546 188 602 273 602 C364 602 388 564 388 541 C388 523 388 494 326 453 C261 410 195 352 195 255 L195 228 L344 228 L344 255 C344 270 349 289 408 329 C496 387 537 455 537 541 C537 614 482 751 273 751 L273 751 Z M368 388 C328 361 296 333 282 299 L274 299 C287 331 315 360 365 393 C448 449 459 500 459 541 C459 591 421 673 273 673 C219 673 156 653 120 600 L114 600 C139 639 185 679 273 679 C463 679 465 547 465 541 C465 498 454 445 368 388 L368 388 Z " />
<glyph glyph-name="at" unicode="&#x40;" horiz-adv-x="825" d="M385 513 C309 513 248 452 248 377 C248 302 309 240 385 240 C460 240 521 302 521 377 C521 452 460 513 385 513 L385 513 Z M388 295 C343 295 306 330 306 375 C306 420 343 455 388 455 C431 455 468 420 468 375 C468 330 431 295 388 295 L388 295 Z M413 750 C206 750 38 581 38 375 C38 169 206 0 413 0 C472 0 529 14 582 41 L591 46 L541 145 L532 140 C494 122 455 112 413 112 C268 112 150 230 150 375 C150 520 268 638 413 638 C482 638 545 611 592 567 L488 567 L488 539 C458 557 423 567 388 567 C281 567 196 481 196 375 C196 269 281 183 388 183 C426 183 465 195 497 217 C516 171 556 140 609 137 C612 137 614 137 616 137 C692 137 744 197 768 254 C781 293 787 333 787 375 C787 581 619 750 413 750 L413 750 Z M385 235 C306 235 242 299 242 377 C242 454 306 518 385 518 C463 518 526 454 526 377 C526 299 463 235 385 235 L385 235 Z M732 377 C726 237 670 187 619 187 C619 187 619 187 618 187 C577 188 542 222 541 263 C540 337 534 514 534 515 L540 515 C540 514 545 337 546 263 C547 225 580 193 618 192 C667 192 721 240 727 377 C730 459 703 534 648 591 C580 662 483 694 422 694 C343 694 225 654 154 567 C100 501 82 418 101 325 C122 223 170 148 241 106 C365 32 521 76 523 77 L524 72 C523 71 476 58 412 58 C359 58 296 67 239 102 C166 145 118 220 96 324 C77 418 95 503 150 570 C222 660 341 699 422 699 C486 699 582 668 652 595 C708 537 735 461 732 377 L732 377 Z M598 273 L598 561 C646 513 675 448 675 375 C675 349 671 321 663 296 C649 266 632 249 617 249 L616 249 C610 249 602 250 599 268 L598 273 L598 273 Z " />
<glyph glyph-name="A" unicode="A" horiz-adv-x="723" d="M425 750 L316 750 L21 0 L200 0 L249 125 L475 125 L520 0 L697 0 L425 750 L425 750 Z M529 203 L196 203 L147 78 L135 78 L369 672 L371 672 L586 78 L575 78 L529 203 L529 203 Z M200 213 L525 213 L370 643 L200 213 L200 213 Z M315 291 L367 422 L414 291 L315 291 L315 291 Z " />
<glyph glyph-name="B" unicode="B" horiz-adv-x="702" d="M136 371 L136 79 L427 79 C428 79 495 80 539 122 C564 148 576 182 576 225 C576 369 436 371 430 371 L136 371 L136 371 Z M491 229 C491 195 479 184 466 177 C451 169 431 167 425 167 L222 167 L222 291 L427 291 C433 291 452 288 467 280 C479 273 491 262 491 229 L491 229 Z M503 652 C467 671 430 672 430 672 L136 672 L136 379 L430 379 C432 379 468 381 504 400 C552 425 576 468 576 526 C576 585 552 626 503 652 L503 652 Z M466 471 C451 463 432 459 425 459 L222 459 L222 584 L425 584 C432 583 451 580 466 572 C481 563 491 551 491 521 C491 492 481 481 466 471 L466 471 Z M657 521 C657 684 522 748 431 751 L55 751 L55 0 L425 0 C425 0 425 0 425 0 C437 0 530 2 595 68 C624 96 657 147 657 229 C657 292 638 341 608 376 C638 412 657 459 657 521 L657 521 Z M585 225 C585 180 571 144 545 117 C499 72 431 71 427 71 L427 71 L128 71 L128 681 L430 681 C432 681 585 673 585 526 C585 420 505 387 461 375 C505 366 585 335 585 225 L585 225 Z " />
<glyph glyph-name="C" unicode="C" horiz-adv-x="726" d="M410 163 C294 163 199 259 199 375 C199 492 294 587 410 587 C470 587 527 562 568 518 L688 627 C617 706 516 750 410 750 C204 750 35 582 35 375 C35 169 204 0 410 0 C516 0 617 45 688 123 L568 232 C527 189 470 163 410 163 L410 163 Z M410 77 C245 77 112 210 112 375 C112 540 245 674 410 674 C469 674 525 657 573 626 L565 619 C519 648 466 663 410 663 C251 663 122 534 122 375 C122 216 251 87 410 87 C466 87 519 103 565 132 L573 124 C525 94 469 77 410 77 L410 77 Z " />
<glyph glyph-name="D" unicode="D" horiz-adv-x="691" d="M434 623 C368 659 299 665 286 665 L284 666 L141 666 L141 85 L280 85 L282 85 C295 86 365 91 432 127 C496 161 574 233 574 375 C574 518 497 589 434 623 L434 623 Z M395 195 C342 168 285 163 278 163 L219 163 L219 587 L282 587 C289 587 345 583 397 554 C464 519 495 460 495 375 C495 290 463 232 395 195 L395 195 Z M468 702 C381 747 295 751 286 751 L55 751 L55 0 L281 0 L282 0 C291 1 377 4 466 49 C590 112 659 228 659 375 C659 523 591 638 468 702 L468 702 Z M430 118 C355 80 283 78 280 78 L280 78 L133 78 L133 673 L285 673 C293 672 363 669 432 632 C531 582 581 493 581 375 C581 257 529 168 430 118 L430 118 Z " />
<glyph glyph-name="E" unicode="E" horiz-adv-x="626" d="M574 588 L574 751 L55 751 L55 -1 L574 -1 L574 162 L218 162 L218 292 L435 292 L435 456 L218 456 L218 588 L574 588 L574 588 Z M357 378 L357 370 L141 370 L141 85 L496 85 L496 77 L133 77 L133 673 L496 673 L496 665 L141 665 L141 378 L357 378 L357 378 Z " />
<glyph glyph-name="F" unicode="F" horiz-adv-x="594" d="M584 584 L584 751 L55 751 L55 0 L222 0 L222 283 L442 283 L442 450 L222 450 L222 584 L584 584 L584 584 Z M365 372 L365 362 L144 362 L144 78 L133 78 L133 673 L506 673 L506 662 L144 662 L144 372 L365 372 L365 372 Z " />
<glyph glyph-name="G" unicode="G" horiz-adv-x="816" d="M413 458 L413 292 L604 292 C573 217 499 166 413 166 C297 166 203 260 203 374 C203 490 297 584 413 584 C472 584 529 559 569 514 L692 626 C620 705 519 750 413 750 C206 750 37 581 37 374 C37 169 206 0 413 0 C619 0 787 169 787 374 L787 458 L413 458 L413 458 Z M714 374 C714 208 579 73 413 73 C246 73 110 208 110 374 C110 542 246 677 413 677 C473 677 529 660 579 627 L575 620 C526 652 471 669 413 669 C250 669 118 537 118 374 C118 213 250 81 413 81 C573 81 704 211 706 370 L503 370 L503 380 L714 380 L714 374 L714 374 Z " />
<glyph glyph-name="H" unicode="H" horiz-adv-x="726" d="M504 751 L504 455 L224 455 L224 751 L55 751 L55 0 L224 0 L224 286 L504 286 L504 0 L673 0 L673 751 L504 751 L504 751 Z M595 78 L584 78 L584 366 L144 366 L144 78 L133 78 L133 672 L144 672 L144 377 L584 377 L584 672 L595 672 L595 78 L595 78 Z " />
<glyph glyph-name="I" unicode="I" horiz-adv-x="275" d="M55 751 L55 -1 L223 -1 L223 751 L55 751 L55 751 Z M145 77 L133 77 L133 673 L145 673 L145 77 L145 77 Z " />
<glyph glyph-name="J" unicode="J" horiz-adv-x="555" d="M507 302 L507 749 L344 749 L344 300 L344 299 L344 297 C344 279 339 227 309 195 C288 173 256 163 212 163 C170 163 137 173 115 193 L7 71 C59 24 129 0 212 0 C324 0 391 45 427 83 C507 167 508 280 507 302 L507 302 Z M372 136 C346 109 297 76 212 76 C180 76 151 80 125 89 L133 98 C156 90 183 87 212 87 C277 87 328 105 364 142 C421 202 420 289 420 299 L420 672 L431 672 L431 300 L431 299 C431 289 432 199 372 136 L372 136 Z " />
<glyph glyph-name="K" unicode="K" horiz-adv-x="799" d="M317 424 L628 750 L401 750 L204 542 L165 501 L165 583 L165 749 L8 749 L5 749 L5 746 L5 513 L5 333 L5 94 L5 0 L165 0 L165 263 L204 304 L493 0 L718 0 L317 424 L317 424 Z M204 414 L89 294 L89 76 L81 76 L81 672 L89 672 L89 311 L434 674 L451 674 L212 424 L541 76 L525 76 L204 414 L204 414 Z " />
<glyph glyph-name="L" unicode="L" horiz-adv-x="596" d="M221 167 L221 750 L55 750 L55 0 L587 0 L587 167 L221 167 L221 167 Z M509 78 L133 78 L133 671 L143 671 L143 89 L509 89 L509 78 L509 78 Z " />
<glyph glyph-name="M" unicode="M" horiz-adv-x="861" d="M670 750 L434 258 L190 750 L55 750 L55 0 L85 0 L221 0 L221 312 L376 0 L494 0 L640 303 L640 0 L806 0 L806 750 L670 750 L670 750 Z M726 78 L718 78 L718 658 L435 69 L431 76 L143 658 L143 78 L135 78 L135 694 L435 88 L726 695 L726 78 L726 78 Z " />
<glyph glyph-name="N" unicode="N" horiz-adv-x="729" d="M507 750 L507 335 L194 750 L55 750 L55 0 L223 0 L223 433 L550 0 L675 0 L675 750 L507 750 L507 750 Z M597 78 L589 78 L144 667 L144 78 L133 78 L133 671 L154 671 L586 100 L586 671 L597 671 L597 78 L597 78 Z " />
<glyph glyph-name="O" unicode="O" horiz-adv-x="826" d="M413 664 C253 664 124 535 124 376 C124 217 253 87 413 87 C571 87 700 217 700 376 C700 535 571 664 413 664 L413 664 Z M413 165 C295 165 201 259 201 376 C201 493 295 587 413 587 C529 587 623 493 623 376 C623 259 529 165 413 165 L413 165 Z M413 750 C206 750 37 582 37 376 C37 170 206 1 413 1 C618 1 787 170 787 376 C787 582 618 750 413 750 L413 750 Z M413 78 C248 78 115 212 115 376 C115 540 248 673 413 673 C576 673 710 540 710 376 C710 212 576 78 413 78 L413 78 Z " />
<glyph glyph-name="P" unicode="P" horiz-adv-x="673" d="M433 750 L55 750 L55 0 L219 0 L219 288 L433 288 L435 288 C526 290 662 353 662 517 C662 680 525 745 433 750 L433 750 Z M534 402 C501 376 461 366 433 365 L142 365 L142 77 L132 77 L132 674 L430 674 C446 672 584 655 584 517 C584 467 568 429 534 402 L534 402 Z M501 642 C473 657 445 662 434 664 L430 664 L142 664 L142 375 L433 375 L436 375 C446 376 478 380 509 397 C553 422 574 462 574 517 C574 589 535 625 501 642 L501 642 Z M471 465 C456 456 438 452 430 451 L219 451 L219 587 L425 587 C430 586 448 584 465 574 C488 563 497 545 497 517 C497 484 485 472 471 465 L471 465 Z " />
<glyph glyph-name="Q" unicode="Q" horiz-adv-x="842" d="M406 663 C247 663 117 533 117 374 C117 215 247 85 406 85 C483 85 554 115 606 165 L489 277 L495 283 L612 171 C663 224 695 295 695 374 C695 533 565 663 406 663 L406 663 Z M604 297 L502 394 L388 276 L488 180 C464 169 436 163 407 163 C290 163 196 258 196 374 C196 492 290 586 407 586 C524 586 619 492 619 374 C619 347 613 321 604 297 L604 297 Z M726 178 C762 236 782 303 782 374 C782 582 614 750 407 750 C200 750 32 582 32 374 C32 168 200 0 407 0 C482 0 553 22 612 62 L684 -8 L797 109 L726 178 L726 178 Z M702 84 L697 78 L612 160 C558 108 486 77 406 77 C242 77 109 211 109 374 C109 538 242 671 406 671 C570 671 704 538 704 374 C704 293 671 219 618 165 L702 84 L702 84 Z " />
<glyph glyph-name="R" unicode="R" horiz-adv-x="745" d="M549 319 C610 354 661 416 661 516 C661 679 524 745 432 750 L55 750 L55 0 L219 0 L219 287 L381 287 L526 0 L710 0 L549 319 L549 319 Z M436 366 L147 366 L147 80 L138 80 L138 672 L434 672 C436 672 589 662 589 516 C589 388 473 369 445 366 L586 81 L579 78 L436 366 L436 366 Z M581 516 C581 655 435 664 434 664 L147 664 L147 374 L438 374 C439 374 475 375 510 393 C557 418 581 459 581 516 L581 516 Z M471 464 C456 455 437 452 430 451 L219 451 L219 587 L425 587 C429 586 448 583 465 574 C488 562 497 545 497 516 C497 483 485 471 471 464 L471 464 Z " />
<glyph glyph-name="S" unicode="S" horiz-adv-x="659" d="M339 456 L339 456 C291 461 205 483 210 534 C211 544 223 557 241 567 C270 583 311 589 353 585 C416 579 460 552 477 527 L613 616 C566 688 475 738 369 748 C294 755 221 742 163 710 C96 674 54 615 48 549 C35 414 145 311 322 293 L322 293 C447 281 452 231 450 216 C449 205 437 193 419 183 C390 167 350 160 307 164 C244 170 200 198 184 223 L47 134 C94 61 186 12 292 2 C305 1 318 0 330 0 C392 0 449 14 497 39 C564 76 606 134 613 200 C626 339 518 439 339 456 L339 456 Z M537 208 C533 167 505 131 461 106 C424 87 380 76 330 76 C320 76 309 77 299 78 C250 83 204 98 167 121 L177 128 C211 107 254 93 300 88 C310 87 320 87 330 87 C378 87 421 97 456 116 C498 139 523 172 526 209 C530 246 515 283 487 312 C453 344 402 363 329 370 C228 380 113 431 124 542 C127 582 155 619 200 643 C236 663 281 673 329 673 C340 673 351 673 361 672 C411 667 457 652 493 628 L483 622 C449 643 406 657 360 661 C350 662 340 663 329 663 C283 663 240 653 205 634 C163 611 138 578 134 541 C126 456 203 393 330 381 C438 370 547 320 537 208 L537 208 Z " />
<glyph glyph-name="T" unicode="T" horiz-adv-x="593" d="M27 750 L27 582 L213 582 L213 0 L379 0 L379 582 L565 582 L565 750 L27 750 L27 750 Z M487 660 L301 660 L301 78 L290 78 L290 660 L105 660 L105 671 L487 671 L487 660 L487 660 Z " />
<glyph glyph-name="U" unicode="U" horiz-adv-x="707" d="M659 310 L659 750 L492 750 L492 308 L492 307 L492 304 C493 286 487 232 456 200 C435 178 402 167 357 167 C276 167 248 201 234 227 C215 262 215 301 215 301 L215 301 L215 750 L48 750 L48 303 C48 286 50 170 134 85 C172 46 241 0 357 0 C472 0 541 47 578 85 C659 171 659 286 659 310 L659 310 Z M523 144 C485 103 430 83 360 83 C289 83 233 104 193 144 C129 209 130 303 130 308 L130 687 L139 687 L139 308 C139 307 138 213 199 150 C237 111 291 91 360 91 C428 91 480 111 517 150 C578 214 574 311 574 312 L574 687 L583 687 L583 312 C583 308 587 211 523 144 L523 144 Z " />
<glyph glyph-name="V" unicode="V" horiz-adv-x="697" d="M496 750 L344 333 L201 750 L23 750 L282 0 L403 0 L674 750 L496 750 L496 750 Z M347 86 L338 86 L134 680 L145 680 L343 106 L551 680 L562 680 L347 86 L347 86 Z " />
<glyph glyph-name="W" unicode="W" horiz-adv-x="906" d="M698 749 L609 417 L527 749 L389 749 L298 406 L207 749 L34 749 L234 0 L362 0 L454 347 L540 0 L669 0 L870 749 L698 749 L698 749 Z M608 53 L461 652 L300 54 L151 668 L159 670 L301 87 L461 686 L608 88 L746 670 L754 668 L608 53 L608 53 Z " />
<glyph glyph-name="X" unicode="X" horiz-adv-x="807" d="M504 377 L760 750 L559 750 L403 523 L249 750 L48 750 L303 377 L45 0 L246 0 L403 230 L562 0 L763 0 L504 377 L504 377 Z M403 369 L205 78 L194 78 L398 377 L197 672 L208 672 L403 385 L600 672 L611 672 L410 377 L614 78 L603 78 L403 369 L403 369 Z " />
<glyph glyph-name="Y" unicode="Y" horiz-adv-x="767" d="M543 750 L370 518 L220 750 L22 750 L283 348 L283 0 L449 0 L449 345 L750 750 L543 750 L543 750 Z M370 372 L370 78 L360 78 L360 372 L167 672 L178 672 L365 382 L582 672 L593 672 L370 372 L370 372 Z " />
<glyph glyph-name="Z" unicode="Z" horiz-adv-x="686" d="M684 750 L96 750 L96 587 L455 587 L55 160 L55 0 L683 0 L683 163 L285 163 L684 591 L684 750 L684 750 Z M121 94 L599 94 L599 86 L101 86 L640 659 L152 659 L152 667 L659 667 L121 94 L121 94 Z " />
<glyph glyph-name="bracketleft" unicode="&#x5b;" horiz-adv-x="295" d="M288 749 L288 897 L217 897 L55 897 L55 749 L55 0 L55 -149 L217 -149 L288 -149 L288 0 L217 0 L217 749 L288 749 L288 749 Z M213 824 L135 824 L135 -77 L213 -77 L213 -88 L126 -88 L126 834 L213 834 L213 824 L213 824 Z " />
<glyph glyph-name="backslash" unicode="&#x5c;" horiz-adv-x="532" d="M8 750 L343 -2 L479 -2 L143 750 L8 750 L8 750 Z M108 668 L116 668 L378 83 L370 83 L108 668 L108 668 Z " />
<glyph glyph-name="bracketright" unicode="&#x5d;" horiz-adv-x="298" d="M117 894 L46 894 L46 746 L117 746 L117 2 L46 2 L46 -148 L117 -148 L278 -148 L278 2 L278 746 L278 894 L117 894 L117 894 Z M209 -88 L121 -88 L121 -76 L198 -76 L198 821 L121 821 L121 832 L209 832 L209 -88 L209 -88 Z " />
<glyph glyph-name="asciicircum" unicode="&#x5e;" horiz-adv-x="696" d="M450 747 L249 747 L28 405 L228 405 L349 592 L470 405 L671 405 L450 747 L450 747 Z M347 708 L188 477 L180 482 L347 723 L520 472 L512 467 L347 708 L347 708 Z " />
<glyph glyph-name="underscore" unicode="&#x5f;" horiz-adv-x="498" d="M55 -1 L55 -115 L362 -115 L362 -1 L55 -1 L55 -1 Z M308 -61 L109 -61 L109 -55 L308 -55 L308 -61 L308 -61 Z " />
<glyph glyph-name="grave" unicode="&#x60;" horiz-adv-x="246" d="M263 748 L36 748 L238 470 L387 579 L263 748 L263 748 Z M204 663 L220 663 L267 597 L257 590 L204 663 L204 663 Z " />
<glyph glyph-name="a" unicode="a" horiz-adv-x="723" d="M425 750 L316 750 L21 0 L200 0 L249 125 L475 125 L520 0 L697 0 L425 750 L425 750 Z M529 203 L196 203 L147 78 L135 78 L369 672 L371 672 L586 78 L575 78 L529 203 L529 203 Z M200 213 L525 213 L370 643 L200 213 L200 213 Z M315 291 L367 422 L414 291 L315 291 L315 291 Z " />
<glyph glyph-name="b" unicode="b" horiz-adv-x="702" d="M136 371 L136 79 L427 79 C428 79 495 80 539 122 C564 148 576 182 576 225 C576 369 436 371 430 371 L136 371 L136 371 Z M491 229 C491 195 479 184 466 177 C451 169 431 167 425 167 L222 167 L222 291 L427 291 C433 291 452 288 467 280 C479 273 491 262 491 229 L491 229 Z M503 652 C467 671 430 672 430 672 L136 672 L136 379 L430 379 C432 379 468 381 504 400 C552 425 576 468 576 526 C576 585 552 626 503 652 L503 652 Z M466 471 C451 463 432 459 425 459 L222 459 L222 584 L425 584 C432 583 451 580 466 572 C481 563 491 551 491 521 C491 492 481 481 466 471 L466 471 Z M657 521 C657 684 522 748 431 751 L55 751 L55 0 L425 0 C425 0 425 0 425 0 C437 0 530 2 595 68 C624 96 657 147 657 229 C657 292 638 341 608 376 C638 412 657 459 657 521 L657 521 Z M585 225 C585 180 571 144 545 117 C499 72 431 71 427 71 L427 71 L128 71 L128 681 L430 681 C432 681 585 673 585 526 C585 420 505 387 461 375 C505 366 585 335 585 225 L585 225 Z " />
<glyph glyph-name="c" unicode="c" horiz-adv-x="726" d="M410 163 C294 163 199 259 199 375 C199 492 294 587 410 587 C470 587 527 562 568 518 L688 627 C617 706 516 750 410 750 C204 750 35 582 35 375 C35 169 204 0 410 0 C516 0 617 45 688 123 L568 232 C527 189 470 163 410 163 L410 163 Z M410 77 C245 77 112 210 112 375 C112 540 245 674 410 674 C469 674 525 657 573 626 L565 619 C519 648 466 663 410 663 C251 663 122 534 122 375 C122 216 251 87 410 87 C466 87 519 103 565 132 L573 124 C525 94 469 77 410 77 L410 77 Z " />
<glyph glyph-name="d" unicode="d" horiz-adv-x="691" d="M434 623 C368 659 299 665 286 665 L284 666 L141 666 L141 85 L280 85 L282 85 C295 86 365 91 432 127 C496 161 574 233 574 375 C574 518 497 589 434 623 L434 623 Z M395 195 C342 168 285 163 278 163 L219 163 L219 587 L282 587 C289 587 345 583 397 554 C464 519 495 460 495 375 C495 290 463 232 395 195 L395 195 Z M468 702 C381 747 295 751 286 751 L55 751 L55 0 L281 0 L282 0 C291 1 377 4 466 49 C590 112 659 228 659 375 C659 523 591 638 468 702 L468 702 Z M430 118 C355 80 283 78 280 78 L280 78 L133 78 L133 673 L285 673 C293 672 363 669 432 632 C531 582 581 493 581 375 C581 257 529 168 430 118 L430 118 Z " />
<glyph glyph-name="e" unicode="e" horiz-adv-x="626" d="M574 588 L574 751 L55 751 L55 -1 L574 -1 L574 162 L218 162 L218 292 L435 292 L435 456 L218 456 L218 588 L574 588 L574 588 Z M357 378 L357 370 L141 370 L141 85 L496 85 L496 77 L133 77 L133 673 L496 673 L496 665 L141 665 L141 378 L357 378 L357 378 Z " />
<glyph glyph-name="f" unicode="f" horiz-adv-x="594" d="M584 584 L584 751 L55 751 L55 0 L222 0 L222 283 L442 283 L442 450 L222 450 L222 584 L584 584 L584 584 Z M365 372 L365 362 L144 362 L144 78 L133 78 L133 673 L506 673 L506 662 L144 662 L144 372 L365 372 L365 372 Z " />
<glyph glyph-name="g" unicode="g" horiz-adv-x="816" d="M413 458 L413 292 L604 292 C573 217 499 166 413 166 C297 166 203 260 203 374 C203 490 297 584 413 584 C472 584 529 559 569 514 L692 626 C620 705 519 750 413 750 C206 750 37 581 37 374 C37 169 206 0 413 0 C619 0 787 169 787 374 L787 458 L413 458 L413 458 Z M714 374 C714 208 579 73 413 73 C246 73 110 208 110 374 C110 542 246 677 413 677 C473 677 529 660 579 627 L575 620 C526 652 471 669 413 669 C250 669 118 537 118 374 C118 213 250 81 413 81 C573 81 704 211 706 370 L503 370 L503 380 L714 380 L714 374 L714 374 Z " />
<glyph glyph-name="h" unicode="h" horiz-adv-x="726" d="M504 751 L504 455 L224 455 L224 751 L55 751 L55 0 L224 0 L224 286 L504 286 L504 0 L673 0 L673 751 L504 751 L504 751 Z M595 78 L584 78 L584 366 L144 366 L144 78 L133 78 L133 672 L144 672 L144 377 L584 377 L584 672 L595 672 L595 78 L595 78 Z " />
<glyph glyph-name="i" unicode="i" horiz-adv-x="275" d="M55 751 L55 -1 L223 -1 L223 751 L55 751 L55 751 Z M145 77 L133 77 L133 673 L145 673 L145 77 L145 77 Z " />
<glyph glyph-name="j" unicode="j" horiz-adv-x="555" d="M507 302 L507 749 L344 749 L344 300 L344 299 L344 297 C344 279 339 227 309 195 C288 173 256 163 212 163 C170 163 137 173 115 193 L7 71 C59 24 129 0 212 0 C324 0 391 45 427 83 C507 167 508 280 507 302 L507 302 Z M372 136 C346 109 297 76 212 76 C180 76 151 80 125 89 L133 98 C156 90 183 87 212 87 C277 87 328 105 364 142 C421 202 420 289 420 299 L420 672 L431 672 L431 300 L431 299 C431 289 432 199 372 136 L372 136 Z " />
<glyph glyph-name="k" unicode="k" horiz-adv-x="812" d="M379 424 L690 750 L463 750 L266 542 L227 501 L227 583 L227 749 L70 749 L67 749 L67 746 L67 513 L67 333 L67 94 L67 0 L227 0 L227 263 L266 304 L555 0 L780 0 L379 424 L379 424 Z M266 414 L151 294 L151 76 L143 76 L143 672 L151 672 L151 311 L496 674 L513 674 L274 424 L603 76 L587 76 L266 414 L266 414 Z " />
<glyph glyph-name="l" unicode="l" horiz-adv-x="596" d="M221 167 L221 750 L55 750 L55 0 L587 0 L587 167 L221 167 L221 167 Z M509 78 L133 78 L133 671 L143 671 L143 89 L509 89 L509 78 L509 78 Z " />
<glyph glyph-name="m" unicode="m" horiz-adv-x="861" d="M670 750 L434 258 L190 750 L55 750 L55 0 L85 0 L221 0 L221 312 L376 0 L494 0 L640 303 L640 0 L806 0 L806 750 L670 750 L670 750 Z M726 78 L718 78 L718 658 L435 69 L431 76 L143 658 L143 78 L135 78 L135 694 L435 88 L726 695 L726 78 L726 78 Z " />
<glyph glyph-name="n" unicode="n" horiz-adv-x="729" d="M507 750 L507 335 L194 750 L55 750 L55 0 L223 0 L223 433 L550 0 L675 0 L675 750 L507 750 L507 750 Z M597 78 L589 78 L144 667 L144 78 L133 78 L133 671 L154 671 L586 100 L586 671 L597 671 L597 78 L597 78 Z " />
<glyph glyph-name="o" unicode="o" horiz-adv-x="826" d="M413 664 C253 664 124 535 124 376 C124 217 253 87 413 87 C571 87 700 217 700 376 C700 535 571 664 413 664 L413 664 Z M413 165 C295 165 201 259 201 376 C201 493 295 587 413 587 C529 587 623 493 623 376 C623 259 529 165 413 165 L413 165 Z M413 750 C206 750 37 582 37 376 C37 170 206 1 413 1 C618 1 787 170 787 376 C787 582 618 750 413 750 L413 750 Z M413 78 C248 78 115 212 115 376 C115 540 248 673 413 673 C576 673 710 540 710 376 C710 212 576 78 413 78 L413 78 Z " />
<glyph glyph-name="p" unicode="p" horiz-adv-x="673" d="M433 750 L55 750 L55 0 L219 0 L219 288 L433 288 L435 288 C526 290 662 353 662 517 C662 680 525 745 433 750 L433 750 Z M534 402 C501 376 461 366 433 365 L142 365 L142 77 L132 77 L132 674 L430 674 C446 672 584 655 584 517 C584 467 568 429 534 402 L534 402 Z M501 642 C473 657 445 662 434 664 L430 664 L142 664 L142 375 L433 375 L436 375 C446 376 478 380 509 397 C553 422 574 462 574 517 C574 589 535 625 501 642 L501 642 Z M471 465 C456 456 438 452 430 451 L219 451 L219 587 L425 587 C430 586 448 584 465 574 C488 563 497 545 497 517 C497 484 485 472 471 465 L471 465 Z " />
<glyph glyph-name="q" unicode="q" horiz-adv-x="842" d="M406 663 C247 663 117 533 117 374 C117 215 247 85 406 85 C483 85 554 115 606 165 L489 277 L495 283 L612 171 C663 224 695 295 695 374 C695 533 565 663 406 663 L406 663 Z M604 297 L502 394 L388 276 L488 180 C464 169 436 163 407 163 C290 163 196 258 196 374 C196 492 290 586 407 586 C524 586 619 492 619 374 C619 347 613 321 604 297 L604 297 Z M726 178 C762 236 782 303 782 374 C782 582 614 750 407 750 C200 750 32 582 32 374 C32 168 200 0 407 0 C482 0 553 22 612 62 L684 -8 L797 109 L726 178 L726 178 Z M702 84 L697 78 L612 160 C558 108 486 77 406 77 C242 77 109 211 109 374 C109 538 242 671 406 671 C570 671 704 538 704 374 C704 293 671 219 618 165 L702 84 L702 84 Z " />
<glyph glyph-name="r" unicode="r" horiz-adv-x="745" d="M549 319 C610 354 661 416 661 516 C661 679 524 745 432 750 L55 750 L55 0 L219 0 L219 287 L381 287 L526 0 L710 0 L549 319 L549 319 Z M436 366 L147 366 L147 80 L138 80 L138 672 L434 672 C436 672 589 662 589 516 C589 388 473 369 445 366 L586 81 L579 78 L436 366 L436 366 Z M581 516 C581 655 435 664 434 664 L147 664 L147 374 L438 374 C439 374 475 375 510 393 C557 418 581 459 581 516 L581 516 Z M471 464 C456 455 437 452 430 451 L219 451 L219 587 L425 587 C429 586 448 583 465 574 C488 562 497 545 497 516 C497 483 485 471 471 464 L471 464 Z " />
<glyph glyph-name="s" unicode="s" horiz-adv-x="659" d="M339 456 L339 456 C291 461 205 483 210 534 C211 544 223 557 241 567 C270 583 311 589 353 585 C416 579 460 552 477 527 L613 616 C566 688 475 738 369 748 C294 755 221 742 163 710 C96 674 54 615 48 549 C35 414 145 311 322 293 L322 293 C447 281 452 231 450 216 C449 205 437 193 419 183 C390 167 350 160 307 164 C244 170 200 198 184 223 L47 134 C94 61 186 12 292 2 C305 1 318 0 330 0 C392 0 449 14 497 39 C564 76 606 134 613 200 C626 339 518 439 339 456 L339 456 Z M537 208 C533 167 505 131 461 106 C424 87 380 76 330 76 C320 76 309 77 299 78 C250 83 204 98 167 121 L177 128 C211 107 254 93 300 88 C310 87 320 87 330 87 C378 87 421 97 456 116 C498 139 523 172 526 209 C530 246 515 283 487 312 C453 344 402 363 329 370 C228 380 113 431 124 542 C127 582 155 619 200 643 C236 663 281 673 329 673 C340 673 351 673 361 672 C411 667 457 652 493 628 L483 622 C449 643 406 657 360 661 C350 662 340 663 329 663 C283 663 240 653 205 634 C163 611 138 578 134 541 C126 456 203 393 330 381 C438 370 547 320 537 208 L537 208 Z " />
<glyph glyph-name="t" unicode="t" horiz-adv-x="593" d="M27 750 L27 582 L213 582 L213 0 L379 0 L379 582 L565 582 L565 750 L27 750 L27 750 Z M487 660 L301 660 L301 78 L290 78 L290 660 L105 660 L105 671 L487 671 L487 660 L487 660 Z " />
<glyph glyph-name="u" unicode="u" horiz-adv-x="707" d="M659 310 L659 750 L492 750 L492 308 L492 307 L492 304 C493 286 487 232 456 200 C435 178 402 167 357 167 C276 167 248 201 234 227 C215 262 215 301 215 301 L215 301 L215 750 L48 750 L48 303 C48 286 50 170 134 85 C172 46 241 0 357 0 C472 0 541 47 578 85 C659 171 659 286 659 310 L659 310 Z M523 144 C485 103 430 83 360 83 C289 83 233 104 193 144 C129 209 130 303 130 308 L130 687 L139 687 L139 308 C139 307 138 213 199 150 C237 111 291 91 360 91 C428 91 480 111 517 150 C578 214 574 311 574 312 L574 687 L583 687 L583 312 C583 308 587 211 523 144 L523 144 Z " />
<glyph glyph-name="v" unicode="v" horiz-adv-x="697" d="M496 750 L344 333 L201 750 L23 750 L282 0 L403 0 L674 750 L496 750 L496 750 Z M347 86 L338 86 L134 680 L145 680 L343 106 L551 680 L562 680 L347 86 L347 86 Z " />
<glyph glyph-name="w" unicode="w" horiz-adv-x="906" d="M698 749 L609 417 L527 749 L389 749 L298 406 L207 749 L34 749 L234 0 L362 0 L454 347 L540 0 L669 0 L870 749 L698 749 L698 749 Z M608 53 L461 652 L300 54 L151 668 L159 670 L301 87 L461 686 L608 88 L746 670 L754 668 L608 53 L608 53 Z " />
<glyph glyph-name="x" unicode="x" horiz-adv-x="807" d="M504 377 L760 750 L559 750 L403 523 L249 750 L48 750 L303 377 L45 0 L246 0 L403 230 L562 0 L763 0 L504 377 L504 377 Z M403 369 L205 78 L194 78 L398 377 L197 672 L208 672 L403 385 L600 672 L611 672 L410 377 L614 78 L603 78 L403 369 L403 369 Z " />
<glyph glyph-name="y" unicode="y" horiz-adv-x="767" d="M543 750 L370 518 L220 750 L22 750 L283 348 L283 0 L449 0 L449 345 L750 750 L543 750 L543 750 Z M370 372 L370 78 L360 78 L360 372 L167 672 L178 672 L365 382 L582 672 L593 672 L370 372 L370 372 Z " />
<glyph glyph-name="z" unicode="z" horiz-adv-x="686" d="M684 750 L96 750 L96 587 L455 587 L55 160 L55 0 L683 0 L683 163 L285 163 L684 591 L684 750 L684 750 Z M121 94 L599 94 L599 86 L101 86 L640 659 L152 659 L152 667 L659 667 L121 94 L121 94 Z " />
<glyph glyph-name="braceleft" unicode="&#x7b;" horiz-adv-x="326" d="M255 747 L326 747 L326 897 L255 897 L94 897 L94 747 L94 518 C91 482 59 453 23 453 L23 453 L23 451 L23 290 L23 288 L23 288 C59 288 91 260 94 223 L94 2 L94 -147 L255 -147 L326 -147 L326 2 L255 2 L255 230 L254 230 C253 283 232 332 198 371 C234 410 254 462 255 518 L255 747 L255 747 Z M89 370 C121 355 180 318 180 230 L180 -51 L254 -51 L254 -63 L169 -63 L169 230 C169 340 67 365 66 365 L34 372 L67 377 C173 387 169 520 169 521 L169 834 L272 834 L272 823 L180 823 L180 521 C180 520 186 394 89 370 L89 370 Z " />
<glyph glyph-name="bar" unicode="&#x7c;" horiz-adv-x="254" d="M55 748 L55 0 L198 0 L198 748 L55 748 L55 748 Z M130 68 L123 68 L123 681 L130 681 L130 68 L130 68 Z " />
<glyph glyph-name="braceright" unicode="&#x7d;" horiz-adv-x="328" d="M354 450 C317 450 287 479 283 515 L283 746 L283 896 L120 896 L48 896 L48 746 L120 746 L120 515 C121 458 142 407 178 366 C145 329 123 280 120 224 L120 224 L120 -2 L48 -2 L48 -153 L120 -153 L283 -153 L283 -2 L283 220 C287 256 317 284 354 284 L354 284 L354 287 L354 448 L354 450 L354 450 L354 450 Z M309 362 C305 362 206 338 206 224 L206 -68 L121 -68 L121 -58 L196 -58 L196 224 C196 314 255 351 288 365 C190 391 196 519 196 520 L196 822 L101 822 L101 832 L206 832 L206 520 C206 520 205 484 217 449 C232 405 263 378 309 373 L341 370 L309 362 L309 362 Z " />
<glyph glyph-name="asciitilde" unicode="&#x7e;" horiz-adv-x="550" d="M482 350 L469 358 L462 344 C461 343 449 324 416 324 C387 324 368 339 336 366 C304 393 259 431 195 431 C76 431 29 358 24 350 L17 336 L121 273 C121 274 135 315 195 306 C211 304 227 295 256 271 C291 240 340 199 416 199 C505 199 557 254 573 287 L580 301 L482 350 L482 350 Z M416 256 C361 256 326 285 292 314 C262 339 234 363 195 363 C159 363 133 354 115 344 L104 350 C124 363 153 374 195 374 C238 374 269 348 299 322 C332 295 365 267 416 267 C444 267 467 275 483 286 L494 280 C476 267 450 256 416 256 L416 256 Z " />
</font>
</svg>
